{
.appVersion = "3151";
.formatVersion = 3;
DisplayStrings = (
"Ħ",
"Ø"
);
date = "2023-01-09 21:34:34 +0000";
familyName = SayatNova;
fontMaster = (
{
guides = (
{
locked = 1;
pos = (302,0);
},
{
locked = 1;
pos = (302,-13);
},
{
locked = 1;
pos = (272,500);
},
{
locked = 1;
pos = (272,513);
},
{
angle = 90;
locked = 1;
pos = (93,330);
},
{
angle = 90;
locked = 1;
pos = (160,320);
},
{
angle = 90;
locked = 1;
pos = (427,330);
},
{
angle = 90;
locked = 1;
pos = (494,320);
},
{
pos = (535,-216);
},
{
locked = 1;
pos = (550,314);
},
{
locked = 1;
pos = (297,-22);
},
{
locked = 1;
pos = (349,380);
},
{
locked = 1;
pos = (348,431);
},
{
angle = 90;
locked = 1;
pos = (692,380);
},
{
angle = 90;
pos = (187,89);
}
);
id = m01;
metricValues = (
{
over = 16;
pos = 800;
},
{
over = 16;
pos = 700;
},
{
over = 16;
pos = 500;
},
{
over = -16;
},
{
over = -16;
pos = -200;
},
{
over = -16;
}
);
name = Regular;
visible = 1;
}
);
glyphs = (
{
color = 4;
glyphname = A;
lastChange = "2023-05-15 13:57:30 +0000";
layers = (
{
anchors = (
{
name = ogonek;
pos = (695,20);
},
{
name = top2;
pos = (354,818);
}
);
layerId = m01;
shapes = (
{
closed = 1;
nodes = (
(170,314,l),
(170,263,l),
(531,263,l),
(531,314,l)
);
},
{
closed = 1;
nodes = (
(580,62,o),
(573,27,o),
(552,8,c),
(556,0,l),
(730,0,l),
(734,8,l),
(706,28,o),
(678,62,o),
(666,91,cs),
(361,814,l),
(347,814,l),
(76,122,ls),
(60,81,o),
(34,43,o),
(0,8,c),
(4,0,l),
(169,0,l),
(173,8,l),
(143,28,o),
(114,62,o),
(133,122,c),
(147,171,o),
(221,364,o),
(341,672,c),
(329,672,l),
(568,91,ls)
);
}
);
width = 734;
}
);
unicode = 65;
},
{
color = 9;
glyphname = AE;
lastChange = "2023-05-23 21:59:26 +0000";
layers = (
{
guides = (
{
angle = 60.5958;
pos = (270,314);
},
{
angle = 60.5958;
pos = (215,314);
}
);
layerId = m01;
shapes = (
{
closed = 1;
nodes = (
(474,721,o),
(473,164,o),
(473,89,cs),
(473,51,o),
(456,24,o),
(432,8,c),
(436,0,l),
(959,0,l),
(964,154,l),
(950,159,l),
(943,142,o),
(910,93,o),
(885,73,cs),
(859,54,o),
(827,50,o),
(787,50,c),
(607,50,l),
(568,50,o),
(556,82,o),
(554,112,cs),
(552,181,o),
(548,620,o),
(554,693,cs),
(556,723,o),
(564,755,o),
(619,755,c),
(758,755,l),
(798,755,o),
(830,751,o),
(856,731,cs),
(881,712,o),
(914,663,o),
(921,646,c),
(935,651,l),
(930,800,l),
(404,800,l),
(400,792,l),
(435,768,o),
(447,726,o),
(420,677,c),
(106,122,ls),
(83,82,o),
(61,49,o),
(27,8,c),
(31,0,l),
(196,0,l),
(200,8,l),
(153,33,o),
(136,77,o),
(161,122,c),
(526,774,l),
(474,774,l)
);
},
{
closed = 1;
nodes = (
(801,380,l),
(827,379,o),
(846,360,o),
(863,327,c),
(871,332,l),
(871,477,l),
(863,482,l),
(842,446,o),
(827,431,o),
(801,431,c),
(522,431,l),
(522,380,l)
);
},
{
closed = 1;
nodes = (
(226,314,l),
(226,263,l),
(505,263,l),
(505,314,l)
);
}
);
width = 994;
}
);
unicode = 198;
},
{
color = 4;
glyphname = B;
lastChange = "2023-04-24 19:25:56 +0000";
layers = (
{
layerId = m01;
shapes = (
{
closed = 1;
nodes = (
(482,405,o),
(549,322,o),
(549,221,cs),
(549,132,o),
(482,50,o),
(381,50,c),
(205,50,l),
(166,50,o),
(154,82,o),
(152,112,cs),
(150,181,o),
(146,620,o),
(152,693,cs),
(154,723,o),
(162,755,o),
(217,755,c),
(339,755,l),
(441,755,o),
(504,700,o),
(504,617,cs),
(504,513,o),
(455,456,o),
(339,456,c),
(120,456,l),
(120,405,l),
(339,405,l)
);
},
{
closed = 1;
nodes = (
(71,658,o),
(71,164,o),
(71,89,cs),
(71,51,o),
(54,24,o),
(30,8,c),
(34,0,l),
(413,0,l),
(532,0,o),
(639,96,o),
(643,221,cs),
(646,322,o),
(564,415,o),
(467,434,c),
(540,464,o),
(596,529,o),
(596,617,cs),
(596,730,o),
(477,800,o),
(368,800,c),
(34,800,l),
(30,792,l),
(54,776,o),
(71,749,o),
(71,711,cs)
);
}
);
width = 661;
}
);
metricLeft = H;
unicode = 66;
},
{
color = 4;
glyphname = C;
lastChange = "2023-05-15 14:30:22 +0000";
layers = (
{
anchors = (
{
name = bottom;
pos = (357,-6);
},
{
name = top2;
pos = (373,828);
}
);
layerId = m01;
shapes = (
{
closed = 1;
nodes = (
(636,215,l),
(622,213,l),
(594,112,o),
(523,33,o),
(403,33,cs),
(267,33,o),
(120,163,o),
(117,373,cs),
(114,551,o),
(224,759,o),
(373,759,cs),
(469,759,o),
(545,692,o),
(573,617,c),
(588,613,l),
(663,684,l),
(607,749,o),
(511,814,o),
(387,814,cs),
(155,814,o),
(12,584,o),
(15,370,cs),
(18,125,o),
(202,-22,o),
(398,-22,cs),
(511,-22,o),
(594,14,o),
(659,86,c)
);
}
);
width = 683;
}
);
metricLeft = O;
unicode = 67;
},
{
color = 4;
glyphname = D;
lastChange = "2023-05-15 14:08:23 +0000";
layers = (
{
anchors = (
{
name = top2;
pos = (302,818);
}
);
layerId = m01;
shapes = (
{
closed = 1;
nodes = (
(166,50,o),
(154,82,o),
(152,112,cs),
(150,181,o),
(146,620,o),
(152,693,cs),
(154,723,o),
(162,755,o),
(217,755,c),
(302,755,l),
(390,755,o),
(460,721,o),
(510,667,cs),
(571,603,o),
(604,509,o),
(601,380,cs),
(600,320,o),
(574,199,o),
(519,135,cs),
(471,79,o),
(408,50,o),
(327,50,c),
(205,50,l)
);
},
{
closed = 1;
nodes = (
(327,0,l),
(417,0,o),
(522,33,o),
(584,101,cs),
(652,175,o),
(699,280,o),
(701,380,cs),
(705,543,o),
(641,653,o),
(546,723,cs),
(478,772,o),
(393,800,o),
(302,800,c),
(34,800,l),
(30,792,l),
(54,776,o),
(71,749,o),
(71,711,cs),
(71,658,o),
(71,164,o),
(71,89,cs),
(71,51,o),
(54,24,o),
(30,8,c),
(34,0,l)
);
}
);
width = 716;
}
);
metricLeft = H;
metricRight = O;
unicode = 68;
},
{
glyphname = Eth;
lastChange = "2023-05-15 19:19:24 +0000";
layers = (
{
layerId = m01;
shapes = (
{
closed = 1;
nodes = (
(166,50,o),
(154,82,o),
(152,112,cs),
(150,181,o),
(146,620,o),
(152,693,cs),
(154,723,o),
(162,755,o),
(217,755,c),
(302,755,l),
(390,755,o),
(460,721,o),
(510,667,cs),
(571,603,o),
(604,509,o),
(601,380,cs),
(600,320,o),
(574,199,o),
(519,135,cs),
(471,79,o),
(408,50,o),
(327,50,c),
(205,50,l)
);
},
{
closed = 1;
nodes = (
(327,0,l),
(417,0,o),
(522,33,o),
(584,101,cs),
(652,175,o),
(699,280,o),
(701,380,cs),
(705,543,o),
(641,653,o),
(546,723,cs),
(478,772,o),
(393,800,o),
(302,800,c),
(34,800,l),
(30,792,l),
(54,776,o),
(71,749,o),
(71,711,cs),
(71,658,o),
(71,164,o),
(71,89,cs),
(71,51,o),
(54,24,o),
(30,8,c),
(34,0,l)
);
},
{
closed = 1;
nodes = (
(0,380,l),
(369,380,l),
(369,435,l),
(0,435,l)
);
}
);
width = 716;
}
);
metricRight = O;
unicode = 208;
},
{
glyphname = Dcroat;
lastChange = "2023-05-15 19:19:27 +0000";
layers = (
{
layerId = m01;
shapes = (
{
closed = 1;
nodes = (
(166,50,o),
(154,82,o),
(152,112,cs),
(150,181,o),
(146,620,o),
(152,693,cs),
(154,723,o),
(162,755,o),
(217,755,c),
(302,755,l),
(390,755,o),
(460,721,o),
(510,667,cs),
(571,603,o),
(604,509,o),
(601,380,cs),
(600,320,o),
(574,199,o),
(519,135,cs),
(471,79,o),
(408,50,o),
(327,50,c),
(205,50,l)
);
},
{
closed = 1;
nodes = (
(327,0,l),
(417,0,o),
(522,33,o),
(584,101,cs),
(652,175,o),
(699,280,o),
(701,380,cs),
(705,543,o),
(641,653,o),
(546,723,cs),
(478,772,o),
(393,800,o),
(302,800,c),
(34,800,l),
(30,792,l),
(54,776,o),
(71,749,o),
(71,711,cs),
(71,658,o),
(71,164,o),
(71,89,cs),
(71,51,o),
(54,24,o),
(30,8,c),
(34,0,l)
);
},
{
closed = 1;
nodes = (
(0,380,l),
(369,380,l),
(369,435,l),
(0,435,l)
);
}
);
width = 716;
}
);
metricRight = O;
unicode = 272;
},
{
color = 4;
glyphname = E;
lastChange = "2023-05-15 14:11:13 +0000";
layers = (
{
anchors = (
{
name = ogonek;
pos = (583,15);
},
{
name = top2;
pos = (302,818);
}
);
guides = (
{
angle = -86.5249;
pos = (558,800);
},
{
angle = 268.442;
pos = (592,154);
}
);
layerId = m01;
shapes = (
{
closed = 1;
nodes = (
(587,0,l),
(592,154,l),
(578,159,l),
(571,142,o),
(538,93,o),
(513,73,cs),
(487,54,o),
(455,50,o),
(415,50,c),
(205,50,l),
(166,50,o),
(154,82,o),
(152,112,cs),
(150,181,o),
(146,620,o),
(152,693,cs),
(154,723,o),
(162,755,o),
(217,755,c),
(386,755,l),
(426,755,o),
(458,751,o),
(484,731,cs),
(509,712,o),
(542,663,o),
(549,646,c),
(563,651,l),
(558,800,l),
(34,800,l),
(30,792,l),
(54,776,o),
(71,749,o),
(71,711,cs),
(71,658,o),
(71,164,o),
(71,89,cs),
(71,51,o),
(54,24,o),
(30,8,c),
(34,0,l)
);
},
{
closed = 1;
nodes = (
(429,380,l),
(455,379,o),
(474,360,o),
(491,327,c),
(499,332,l),
(499,477,l),
(491,482,l),
(470,446,o),
(455,431,o),
(429,431,c),
(120,431,l),
(120,380,l)
);
}
);
width = 622;
}
);
metricLeft = H;
unicode = 69;
},
{
color = 4;
glyphname = F;
lastChange = "2023-04-24 19:26:14 +0000";
layers = (
{
layerId = m01;
shapes = (
{
closed = 1;
nodes = (
(412,380,l),
(440,380,o),
(454,365,o),
(474,326,c),
(482,331,l),
(482,478,l),
(474,483,l),
(454,447,o),
(440,431,o),
(412,431,c),
(118,431,l),
(118,380,l)
);
},
{
closed = 1;
nodes = (
(30,792,l),
(54,776,o),
(71,749,o),
(71,711,c),
(71,89,l),
(71,48,o),
(54,24,o),
(30,8,c),
(34,0,l),
(190,0,l),
(193,8,l),
(169,24,o),
(152,51,o),
(152,89,cs),
(150,158,o),
(146,620,o),
(152,693,cs),
(154,723,o),
(162,755,o),
(217,755,c),
(379,755,l),
(419,755,o),
(451,751,o),
(477,731,cs),
(502,712,o),
(535,663,o),
(542,646,c),
(556,651,l),
(551,800,l),
(34,800,l)
);
}
);
width = 556;
}
);
metricLeft = H;
unicode = 70;
},
{
color = 4;
glyphname = G;
lastChange = "2023-05-22 20:49:51 +0000";
layers = (
{
anchors = (
{
name = bottom2;
pos = (382,0);
},
{
name = top2;
pos = (373,828);
}
);
guides = (
{
angle = 90;
pos = (663,361);
},
{
pos = (594,609);
}
);
layerId = m01;
shapes = (
{
closed = 1;
nodes = (
(545,78,o),
(491,33,o),
(387,33,cs),
(267,33,o),
(118,163,o),
(115,373,cs),
(112,551,o),
(224,761,o),
(373,761,cs),
(469,761,o),
(545,692,o),
(573,617,c),
(588,613,l),
(649,694,l),
(593,759,o),
(511,814,o),
(387,814,cs),
(155,814,o),
(12,584,o),
(15,370,cs),
(18,125,o),
(202,-22,o),
(382,-22,cs),
(511,-22,o),
(588,18,o),
(651,90,c),
(651,310,l),
(651,349,o),
(667,361,o),
(696,372,c),
(688,380,l),
(500,380,l),
(493,372,l),
(530,361,o),
(569,334,o),
(569,276,c),
(569,125,l)
);
}
);
width = 726;
}
);
metricLeft = O;
unicode = 71;
},
{
color = 9;
glyphname = Gstroke;
lastChange = "2023-05-22 20:52:16 +0000";
layers = (
{
layerId = m01;
shapes = (
{
ref = G;
},
{
closed = 1;
nodes = (
(427,190,l),
(727,190,l),
(727,245,l),
(427,245,l)
);
}
);
width = 726;
}
);
unicode = 484;
},
{
color = 4;
glyphname = H;
lastChange = "2023-05-15 14:14:06 +0000";
layers = (
{
anchors = (
{
name = top2;
pos = (380,828);
}
);
guides = (
{
angle = 90;
pos = (694,174);
}
);
layerId = m01;
shapes = (
{
closed = 1;
nodes = (
(71,48,o),
(54,24,o),
(30,8,c),
(34,0,l),
(189,0,l),
(192,8,l),
(168,24,o),
(151,48,o),
(151,89,c),
(151,711,l),
(151,752,o),
(168,776,o),
(192,792,c),
(189,800,l),
(34,800,l),
(30,792,l),
(54,776,o),
(71,752,o),
(71,711,c),
(71,89,l)
);
},
{
closed = 1;
nodes = (
(119,380,l),
(665,380,l),
(665,431,l),
(119,431,l)
);
},
{
closed = 1;
nodes = (
(609,48,o),
(592,24,o),
(568,8,c),
(571,0,l),
(726,0,l),
(730,8,l),
(706,24,o),
(689,48,o),
(689,89,c),
(689,711,l),
(689,752,o),
(706,776,o),
(730,792,c),
(726,800,l),
(571,800,l),
(568,792,l),
(592,776,o),
(609,752,o),
(609,711,c),
(609,89,l)
);
}
);
width = 760;
}
);
unicode = 72;
},
{
color = 9;
glyphname = Hbar;
lastChange = "2023-05-22 20:53:51 +0000";
layers = (
{
layerId = m01;
shapes = (
{
ref = H;
},
{
closed = 1;
nodes = (
(0,568,l),
(761,568,l),
(761,623,l),
(0,623,l)
);
}
);
width = 760;
}
);
unicode = 294;
},
{
color = 4;
glyphname = I;
lastChange = "2023-05-15 14:20:04 +0000";
layers = (
{
anchors = (
{
name = ogonek;
pos = (235,16);
},
{
name = top2;
pos = (111,818);
}
);
layerId = m01;
shapes = (
{
closed = 1;
nodes = (
(71,48,o),
(54,24,o),
(30,8,c),
(33,0,l),
(188,0,l),
(192,8,l),
(168,24,o),
(151,48,o),
(151,89,c),
(151,711,l),
(151,752,o),
(168,776,o),
(192,792,c),
(188,800,l),
(33,800,l),
(30,792,l),
(54,776,o),
(71,752,o),
(71,711,c),
(71,89,l)
);
}
);
width = 222;
}
);
metricLeft = H;
metricRight = H;
unicode = 73;
},
{
color = 4;
glyphname = J;
lastChange = "2023-05-15 14:16:40 +0000";
layers = (
{
anchors = (
{
name = top2;
pos = (173,818);
}
);
layerId = m01;
shapes = (
{
closed = 1;
nodes = (
(213,641,o),
(212,145,o),
(209,70,cs),
(207,9,o),
(187,-45,o),
(157,-82,cs),
(133,-114,o),
(71,-171,o),
(32,-190,c),
(30,-171,l),
(103,-91,o),
(125,-17,o),
(130,70,cs),
(134,145,o),
(133,641,o),
(133,711,c),
(133,752,o),
(116,776,o),
(92,792,c),
(95,800,l),
(250,800,l),
(254,792,l),
(230,776,o),
(213,752,o),
(213,711,c)
);
}
);
width = 284;
}
);
metricLeft = H;
metricRight = H;
unicode = 74;
},
{
color = 4;
glyphname = K;
lastChange = "2023-05-22 20:55:26 +0000";
layers = (
{
anchors = (
{
name = bottom2;
pos = (303,0);
},
{
name = top2;
pos = (302,818);
}
);
guides = (
{
angle = -88.3431;
pos = (632,800);
},
{
pos = (233,8);
},
{
pos = (198,792);
},
{
pos = (325,10);
},
{
angle = 90;
pos = (302,233);
}
);
layerId = m01;
shapes = (
{
closed = 1;
nodes = (
(472,792,l),
(478,774,o),
(463,743,o),
(446,723,cs),
(389,656,o),
(238,492,o),
(135,391,c),
(135,310,l),
(499,700,ls),
(545,749,o),
(581,776,o),
(632,788,c),
(629,800,l),
(478,800,l)
);
},
{
closed = 1;
nodes = (
(478,79,ls),
(500,50,o),
(501,29,o),
(496,8,c),
(501,0,l),
(649,0,l),
(653,12,l),
(633,21,o),
(594,46,o),
(569,79,cs),
(270,480,l),
(221,427,l)
);
},
{
closed = 1;
nodes = (
(71,48,o),
(54,24,o),
(30,8,c),
(34,0,l),
(189,0,l),
(192,8,l),
(168,24,o),
(151,48,o),
(151,89,c),
(151,711,l),
(151,752,o),
(168,776,o),
(192,792,c),
(189,800,l),
(34,800,l),
(30,792,l),
(54,776,o),
(71,752,o),
(71,711,c),
(71,89,l)
);
}
);
width = 663;
}
);
metricLeft = H;
unicode = 75;
},
{
color = 4;
glyphname = L;
lastChange = "2023-05-21 13:02:15 +0000";
layers = (
{
anchors = (
{
name = bottom2;
pos = (327,12);
},
{
name = top2;
pos = (111,818);
}
);
layerId = m01;
shapes = (
{
closed = 1;
nodes = (
(154,86,o),
(169,50,o),
(208,50,c),
(422,50,l),
(462,50,o),
(494,54,o),
(520,73,cs),
(545,93,o),
(578,142,o),
(585,159,c),
(599,154,l),
(594,0,l),
(33,0,l),
(30,8,l),
(54,24,o),
(71,48,o),
(71,89,c),
(71,711,l),
(71,752,o),
(54,776,o),
(30,792,c),
(33,800,l),
(188,800,l),
(192,792,l),
(168,776,o),
(151,752,o),
(151,711,cs),
(151,511,o),
(147,317,o),
(153,117,cs)
);
}
);
width = 623;
}
);
metricLeft = H;
unicode = 76;
},
{
glyphname = Lslash;
lastChange = "2023-05-15 19:36:44 +0000";
layers = (
{
guides = (
{
angle = 208.6423;
pos = (422,513);
},
{
angle = 208.6423;
pos = (422,458);
},
{
angle = 90;
pos = (402,493);
}
);
layerId = m01;
shapes = (
{
closed = 1;
nodes = (
(147,317,o),
(151,511,o),
(151,711,cs),
(151,752,o),
(168,776,o),
(192,792,c),
(188,800,l),
(33,800,l),
(30,792,l),
(54,776,o),
(71,752,o),
(71,711,c),
(71,89,l),
(71,48,o),
(54,24,o),
(30,8,c),
(33,0,l),
(594,0,l),
(599,154,l),
(585,159,l),
(578,142,o),
(545,93,o),
(520,73,cs),
(494,54,o),
(462,50,o),
(422,50,c),
(208,50,l),
(169,50,o),
(154,86,o),
(153,117,cs)
);
},
{
closed = 1;
nodes = (
(-1,222,l),
(120,288,l),
(120,343,l),
(-1,277,l)
);
},
{
closed = 1;
nodes = (
(140,305,l),
(402,447,l),
(402,502,l),
(140,360,l)
);
}
);
width = 600;
}
);
unicode = 321;
},
{
color = 4;
glyphname = M;
lastChange = "2023-04-24 19:27:27 +0000";
layers = (
{
layerId = m01;
shapes = (
{
closed = 1;
nodes = (
(96,677,o),
(78,164,o),
(71,89,cs),
(67,48,o),
(54,24,o),
(30,8,c),
(34,0,l),
(165,0,l),
(168,8,l),
(144,24,o),
(127,48,o),
(127,89,cs),
(127,164,o),
(139,634,o),
(145,694,c),
(139,694,l),
(436,-14,l),
(450,-14,l),
(726,694,l),
(720,694,l),
(726,634,o),
(742,164,o),
(741,89,cs),
(741,48,o),
(724,24,o),
(700,8,c),
(703,0,l),
(858,0,l),
(862,8,l),
(838,24,o),
(824,41,o),
(821,89,cs),
(816,164,o),
(797,677,o),
(803,730,cs),
(805,759,o),
(819,782,o),
(844,792,c),
(839,800,l),
(699,801,l),
(699,792,o),
(695,765,o),
(692,753,cs),
(678,704,o),
(576,436,o),
(456,128,c),
(468,128,l),
(379,336,o),
(217,704,o),
(202,753,cs),
(199,764,o),
(195,792,o),
(195,801,c),
(55,800,l),
(50,792,l),
(75,782,o),
(89,759,o),
(91,730,cs)
);
}
);
width = 892;
}
);
metricLeft = H;
metricRight = H;
unicode = 77;
},
{
color = 4;
glyphname = N;
lastChange = "2023-05-21 13:03:39 +0000";
layers = (
{
anchors = (
{
name = bottom2;
pos = (390,12);
},
{
name = top2;
pos = (390,828);
}
);
guides = (
{
angle = 90;
pos = (15,42);
},
{
angle = 90;
pos = (390,913);
}
);
layerId = m01;
shapes = (
{
closed = 1;
nodes = (
(71,89,l),
(71,48,o),
(54,24,o),
(30,8,c),
(34,0,l),
(164,0,l),
(167,8,l),
(143,24,o),
(126,48,o),
(126,89,c),
(126,701,l),
(108,701,l),
(670,-14,l),
(690,-14,l),
(690,711,l),
(690,752,o),
(707,776,o),
(731,792,c),
(727,800,l),
(597,800,l),
(594,792,l),
(618,776,o),
(635,752,o),
(635,711,c),
(635,140,l),
(668,140,l),
(184,758,l),
(172,773,o),
(169,785,o),
(167,800,c),
(35,800,l),
(30,792,l),
(55,782,o),
(69,759,o),
(71,730,c)
);
}
);
width = 761;
}
);
metricLeft = H;
metricRight = H;
unicode = 78;
},
{
color = 4;
glyphname = O;
lastChange = "2023-05-15 14:31:39 +0000";
layers = (
{
anchors = (
{
name = top2;
pos = (371,828);
}
);
layerId = m01;
shapes = (
{
closed = 1;
nodes = (
(731,666,o),
(571,813,o),
(381,813,cs),
(144,813,o),
(15,583,o),
(15,368,cs),
(15,125,o),
(175,-22,o),
(365,-22,cs),
(603,-22,o),
(731,208,o),
(731,422,cs)
);
},
{
closed = 1;
nodes = (
(636,165,o),
(515,33,o),
(381,33,cs),
(210,33,o),
(110,240,o),
(110,422,cs),
(110,626,o),
(232,758,o),
(365,758,cs),
(536,758,o),
(636,550,o),
(636,368,cs)
);
}
);
width = 746;
}
);
unicode = 79;
},
{
color = 9;
glyphname = Oslash;
lastChange = "2023-05-23 22:14:28 +0000";
layers = (
{
guides = (
{
},
{
angle = 60;
pos = (593,836);
},
{
pos = (427,380);
},
{
pos = (104,-45);
}
);
layerId = m01;
shapes = (
{
ref = O;
},
{
closed = 1;
nodes = (
(153,-45,l),
(656,836,l),
(593,836,l),
(91,-45,l)
);
}
);
width = 746;
}
);
unicode = 216;
},
{
color = 9;
glyphname = OE;
lastChange = "2023-05-23 22:06:37 +0000";
layers = (
{
layerId = m01;
shapes = (
{
closed = 1;
nodes = (
(676,380,l),
(702,379,o),
(721,360,o),
(738,327,c),
(746,332,l),
(746,477,l),
(738,482,l),
(717,446,o),
(702,431,o),
(676,431,c),
(397,431,l),
(397,380,l)
);
},
{
closed = 1;
nodes = (
(337,809,o),
(305,813,o),
(269,813,cs),
(32,813,o),
(-97,583,o),
(-97,368,cs),
(-97,125,o),
(63,-22,o),
(253,-22,cs),
(295,-22,o),
(338,-16,o),
(373,0,c),
(834,0,l),
(839,154,l),
(825,159,l),
(818,142,o),
(785,93,o),
(760,73,cs),
(734,54,o),
(702,50,o),
(662,50,c),
(482,50,l),
(443,50,o),
(431,82,o),
(429,112,cs),
(427,181,o),
(423,620,o),
(429,693,cs),
(431,723,o),
(439,755,o),
(494,755,c),
(633,755,l),
(673,755,o),
(705,751,o),
(731,731,cs),
(756,712,o),
(789,663,o),
(796,646,c),
(810,651,l),
(805,800,l),
(368,800,l)
);
},
{
closed = 1;
nodes = (
(348,658,o),
(348,164,o),
(348,101,c),
(348,54,o),
(313,33,o),
(264,33,cs),
(93,33,o),
(-2,240,o),
(-2,422,cs),
(-2,626,o),
(120,758,o),
(253,758,cs),
(301,758,o),
(348,739,o),
(348,695,c)
);
}
);
width = 869;
}
);
unicode = 338;
},
{
color = 4;
glyphname = P;
lastChange = "2023-05-01 09:21:42 +0000";
layers = (
{
layerId = m01;
shapes = (
{
closed = 1;
nodes = (
(325,755,l),
(433,755,o),
(508,676,o),
(508,571,cs),
(508,478,o),
(449,380,o),
(311,380,cs),
(124,380,l),
(124,329,l),
(331,329,l),
(524,329,o),
(600,472,o),
(600,571,cs),
(600,709,o),
(484,800,o),
(338,800,c),
(34,800,l),
(30,792,l),
(54,776,o),
(71,749,o),
(71,711,c),
(71,89,l),
(71,48,o),
(54,24,o),
(30,8,c),
(34,0,l),
(190,0,l),
(193,8,l),
(169,24,o),
(152,51,o),
(152,89,cs),
(150,158,o),
(146,620,o),
(152,693,cs),
(154,723,o),
(162,755,o),
(217,755,cs)
);
}
);
width = 615;
}
);
metricLeft = H;
metricRight = O;
unicode = 80;
},
{
color = 9;
glyphname = Thorn;
lastChange = "2023-05-23 21:40:35 +0000";
layers = (
{
layerId = m01;
shapes = (
{
closed = 1;
nodes = (
(152,749,o),
(169,776,o),
(193,792,c),
(190,800,l),
(34,800,l),
(30,792,l),
(54,776,o),
(71,752,o),
(71,711,cs),
(71,89,l),
(71,48,o),
(54,24,o),
(30,8,c),
(34,0,l),
(190,0,l),
(193,8,l),
(169,24,o),
(152,51,o),
(152,89,cs),
(150,158,o),
(146,480,o),
(152,553,cs),
(154,583,o),
(162,615,o),
(217,615,cs),
(325,615,l),
(433,615,o),
(508,536,o),
(508,431,cs),
(508,338,o),
(449,240,o),
(311,240,cs),
(124,240,l),
(124,189,l),
(331,189,l),
(524,189,o),
(600,332,o),
(600,431,cs),
(600,569,o),
(484,660,o),
(338,660,c),
(124,660,l),
(152,635,l),
(152,711,l)
);
}
);
width = 600;
}
);
unicode = 222;
},
{
color = 4;
glyphname = Q;
lastChange = "2023-05-01 09:27:41 +0000";
layers = (
{
guides = (
{
angle = 90;
locked = 1;
pos = (767,439);
},
{
angle = 90;
locked = 1;
pos = (16,354);
}
);
layerId = m01;
shapes = (
{
closed = 1;
nodes = (
(922,-172,o),
(803,-153,o),
(665,-83,cs),
(571,-35,o),
(465,9,o),
(325,39,c),
(303,-8,l),
(439,-42,o),
(507,-77,o),
(619,-136,cs),
(771,-216,o),
(929,-222,o),
(1074,-165,c),
(1065,-138,l)
);
},
{
closed = 1;
nodes = (
(767,666,o),
(599,813,o),
(399,813,cs),
(150,813,o),
(15,583,o),
(15,368,cs),
(15,125,o),
(183,-22,o),
(383,-22,cs),
(633,-22,o),
(767,208,o),
(767,422,cs)
);
},
{
closed = 1;
nodes = (
(671,165,o),
(540,33,o),
(399,33,cs),
(220,33,o),
(111,235,o),
(111,422,cs),
(111,626,o),
(243,758,o),
(383,758,cs),
(562,758,o),
(671,555,o),
(671,368,cs)
);
}
);
width = 844;
}
);
metricLeft = O;
unicode = 81;
},
{
color = 4;
glyphname = R;
lastChange = "2023-05-22 20:58:17 +0000";
layers = (
{
anchors = (
{
name = bottom2;
pos = (343,0);
},
{
name = top2;
pos = (302,818);
}
);
guides = (
{
angle = 90;
locked = 1;
pos = (600,571);
},
{
angle = 90;
pos = (302,621);
}
);
layerId = m01;
shapes = (
{
closed = 1;
nodes = (
(505,79,ls),
(532,42,o),
(531,14,o),
(526,0,c),
(676,0,l),
(676,5,o),
(681,10,o),
(681,15,c),
(664,21,o),
(615,54,o),
(596,79,cs),
(379,375,l),
(320,332,l)
);
},
{
closed = 1;
nodes = (
(325,755,l),
(433,755,o),
(508,676,o),
(508,571,cs),
(508,478,o),
(449,380,o),
(311,380,cs),
(124,380,l),
(124,329,l),
(331,329,l),
(524,329,o),
(600,472,o),
(600,571,cs),
(600,709,o),
(484,800,o),
(338,800,c),
(34,800,l),
(30,792,l),
(54,776,o),
(71,749,o),
(71,711,c),
(71,89,l),
(71,48,o),
(54,24,o),
(30,8,c),
(34,0,l),
(190,0,l),
(193,8,l),
(169,24,o),
(152,51,o),
(152,89,cs),
(150,158,o),
(146,620,o),
(152,693,cs),
(154,723,o),
(162,755,o),
(217,755,cs)
);
}
);
width = 691;
}
);
metricLeft = H;
unicode = 82;
},
{
color = 4;
glyphname = S;
lastChange = "2023-05-21 12:49:25 +0000";
layers = (
{
anchors = (
{
name = bottom;
pos = (238,0);
},
{
name = bottom2;
pos = (295,0);
},
{
name = top2;
pos = (288,818);
},
{
name = top3;
pos = (271,815);
}
);
guides = (
{
locked = 1;
pos = (282,811);
},
{
pos = (282,811);
},
{
locked = 1;
pos = (303,-22);
},
{
locked = 1;
pos = (303,360);
},
{
locked = 1;
pos = (329,31);
},
{
locked = 1;
pos = (1064,31);
},
{
locked = 1;
pos = (243,762);
},
{
angle = 90;
pos = (271,811);
}
);
layerId = m01;
shapes = (
{
closed = 1;
nodes = (
(194,484,o),
(92,521,o),
(92,621,cs),
(92,716,o),
(181,759,o),
(271,759,cs),
(371,759,o),
(473,697,o),
(524,597,c),
(539,600,l),
(539,757,l),
(483,782,o),
(380,811,o),
(288,811,cs),
(148,811,o),
(20,734,o),
(20,588,cs),
(20,442,o),
(146,402,o),
(287,360,cs),
(459,311,o),
(515,266,o),
(515,183,cs),
(515,96,o),
(452,36,o),
(328,36,cs),
(205,36,o),
(105,88,o),
(40,177,c),
(22,173,l),
(22,25,l),
(116,-5,o),
(213,-22,o),
(287,-22,cs),
(455,-22,o),
(588,64,o),
(588,213,cs),
(588,332,o),
(502,396,o),
(336,445,cs)
);
}
);
width = 608;
}
);
unicode = 83;
},
{
color = 4;
glyphname = T;
lastChange = "2023-05-21 12:47:06 +0000";
layers = (
{
anchors = (
{
name = bottom;
pos = (314,12);
},
{
name = bottom2;
pos = (356,12);
},
{
name = top2;
pos = (357,828);
}
);
guides = (
{
angle = 90;
pos = (724,588);
},
{
angle = 90;
pos = (694,593);
},
{
angle = 90;
pos = (20,544);
},
{
angle = 90;
pos = (-10,549);
},
{
angle = 90;
locked = 1;
pos = (314,769);
},
{
angle = 90;
locked = 1;
pos = (400,769);
}
);
layerId = m01;
shapes = (
{
closed = 1;
nodes = (
(517,755,ls),
(557,755,o),
(589,751,o),
(615,731,cs),
(640,712,o),
(673,663,o),
(680,646,c),
(694,651,l),
(685,800,l),
(29,800,l),
(20,651,l),
(34,646,l),
(41,663,o),
(74,712,o),
(99,731,cs),
(125,751,o),
(157,755,o),
(197,755,cs)
);
},
{
closed = 1;
nodes = (
(317,768,l),
(317,89,l),
(317,48,o),
(300,24,o),
(276,8,c),
(279,0,l),
(434,0,l),
(438,8,l),
(414,24,o),
(397,48,o),
(397,89,c),
(397,768,l)
);
}
);
width = 714;
}
);
unicode = 84;
},
{
glyphname = Tbar;
lastChange = "2023-05-15 19:42:41 +0000";
layers = (
{
layerId = m01;
shapes = (
{
closed = 1;
nodes = (
(517,755,ls),
(557,755,o),
(589,751,o),
(615,731,cs),
(640,712,o),
(673,663,o),
(680,646,c),
(694,651,l),
(685,800,l),
(29,800,l),
(20,651,l),
(34,646,l),
(41,663,o),
(74,712,o),
(99,731,cs),
(125,751,o),
(157,755,o),
(197,755,cs)
);
},
{
closed = 1;
nodes = (
(317,768,l),
(317,89,l),
(317,48,o),
(300,24,o),
(276,8,c),
(279,0,l),
(434,0,l),
(438,8,l),
(414,24,o),
(397,48,o),
(397,89,c),
(397,768,l)
);
},
{
closed = 1;
nodes = (
(172,376,l),
(541,376,l),
(541,431,l),
(172,431,l)
);
}
);
width = 714;
}
);
unicode = 358;
},
{
color = 4;
glyphname = U;
lastChange = "2023-05-15 14:46:44 +0000";
layers = (
{
anchors = (
{
name = ogonek;
pos = (494,1);
},
{
name = top2;
pos = (393,828);
}
);
layerId = m01;
shapes = (
{
closed = 1;
nodes = (
(690,752,o),
(707,776,o),
(731,792,c),
(728,800,l),
(601,800,l),
(597,792,l),
(621,776,o),
(638,752,o),
(638,711,c),
(638,331,l),
(636,141,o),
(555,31,o),
(395,31,cs),
(257,31,o),
(159,141,o),
(161,331,c),
(161,711,l),
(161,752,o),
(178,776,o),
(202,792,c),
(199,800,l),
(34,800,l),
(30,792,l),
(54,776,o),
(71,752,o),
(71,711,c),
(71,331,l),
(72,141,o),
(146,-23,o),
(390,-23,cs),
(612,-23,o),
(687,141,o),
(690,331,c),
(690,711,l)
);
}
);
width = 765;
}
);
metricLeft = H;
unicode = 85;
},
{
color = 4;
glyphname = V;
lastChange = "2023-05-01 10:26:21 +0000";
layers = (
{
guides = (
{
locked = 1;
pos = (316,800);
}
);
layerId = m01;
shapes = (
{
closed = 1;
nodes = (
(379,-14,l),
(395,-14,l),
(651,678,l),
(672,733,o),
(708,770,o),
(729,789,c),
(722,800,l),
(574,800,l),
(602,760,o),
(615,729,o),
(593,665,c),
(396,125,l),
(419,125,l),
(199,678,l),
(183,719,o),
(191,765,o),
(229,787,c),
(223,800,l),
(6,800,l),
(0,787,l),
(39,774,o),
(68,760,o),
(90,708,c)
);
}
);
width = 729;
}
);
unicode = 86;
},
{
color = 4;
glyphname = W;
lastChange = "2023-05-15 14:49:18 +0000";
layers = (
{
anchors = (
{
name = top2;
pos = (540,828);
}
);
layerId = m01;
shapes = (
{
closed = 1;
nodes = (
(353,-14,l),
(360,-14,o),
(361,-14,o),
(367,-14,c),
(576,545,l),
(550,612,l),
(365,128,l),
(385,128,l),
(179,678,l),
(164,719,o),
(171,765,o),
(209,787,c),
(203,800,l),
(7,800,l),
(1,787,l),
(31,772,o),
(55,747,o),
(68,709,c)
);
},
{
closed = 1;
nodes = (
(578,719,o),
(594,765,o),
(640,787,c),
(634,800,l),
(407,800,l),
(401,787,l),
(440,774,o),
(465,754,o),
(481,709,c),
(762,-14,l),
(769,-14,o),
(770,-14,o),
(776,-14,c),
(1036,678,l),
(1057,733,o),
(1093,770,o),
(1114,789,c),
(1107,800,l),
(959,800,l),
(987,760,o),
(1000,729,o),
(978,665,c),
(777,128,l),
(794,128,l),
(594,678,l)
);
}
);
width = 1114;
}
);
unicode = 87;
},
{
color = 4;
glyphname = X;
lastChange = "2023-05-01 11:09:46 +0000";
layers = (
{
guides = (
{
angle = 90;
pos = (15,716);
},
{
angle = 90;
pos = (745,236);
},
{
angle = 56.7254;
pos = (571,700);
}
);
layerId = m01;
shapes = (
{
closed = 1;
nodes = (
(393,429,l),
(424,388,l),
(639,700,l),
(666,738,o),
(694,770,o),
(715,789,c),
(708,800,l),
(560,800,l),
(581,770,o),
(591,732,o),
(571,700,c)
);
},
{
closed = 1;
nodes = (
(106,62,o),
(78,30,o),
(57,11,c),
(64,0,l),
(212,0,l),
(191,30,o),
(180,68,o),
(201,100,c),
(379,371,l),
(348,412,l),
(133,100,l)
);
},
{
closed = 1;
nodes = (
(222,701,l),
(198,733,o),
(197,769,o),
(206,800,c),
(15,800,l),
(9,781,l),
(50,764,o),
(93,735,o),
(115,701,c),
(536,99,l),
(559,66,o),
(561,31,o),
(552,0,c),
(743,0,l),
(749,19,l),
(708,36,o),
(665,65,o),
(643,99,c)
);
}
);
width = 759;
}
);
metricRight = K;
unicode = 88;
},
{
color = 4;
glyphname = Y;
lastChange = "2023-05-15 14:51:33 +0000";
layers = (
{
anchors = (
{
name = top2;
pos = (355,828);
}
);
guides = (
{
angle = 90;
locked = 1;
pos = (321,269);
},
{
angle = 90;
locked = 1;
pos = (400,269);
}
);
layerId = m01;
shapes = (
{
closed = 1;
nodes = (
(320,269,l),
(320,89,l),
(320,48,o),
(303,24,o),
(279,8,c),
(282,0,l),
(437,0,l),
(441,8,l),
(417,24,o),
(400,48,o),
(400,89,c),
(400,269,l),
(610,678,l),
(638,733,o),
(667,770,o),
(688,789,c),
(681,800,l),
(533,800,l),
(568,750,o),
(577,715,o),
(547,654,c),
(375,314,l),
(395,314,l),
(198,701,l),
(183,733,o),
(177,757,o),
(182,800,c),
(26,800,l),
(20,781,l),
(57,765,o),
(81,740,o),
(102,700,c)
);
}
);
width = 708;
}
);
metricLeft = T;
metricRight = T;
unicode = 89;
},
{
color = 4;
glyphname = Z;
lastChange = "2023-05-15 14:52:02 +0000";
layers = (
{
anchors = (
{
name = top2;
pos = (302,818);
}
);
layerId = m01;
shapes = (
{
closed = 1;
nodes = (
(18,17,l),
(18,0,l),
(602,0,l),
(607,154,l),
(593,159,l),
(586,142,o),
(553,93,o),
(528,73,cs),
(502,54,o),
(470,50,o),
(430,50,c),
(152,50,l),
(550,716,ls),
(569,748,o),
(582,768,o),
(603,785,c),
(603,800,l),
(52,800,l),
(47,651,l),
(61,646,l),
(68,663,o),
(101,712,o),
(126,731,cs),
(152,751,o),
(184,755,o),
(224,755,c),
(467,755,l)
);
}
);
width = 625;
}
);
unicode = 90;
},
{
color = 4;
glyphname = a;
lastChange = "2023-05-15 19:43:39 +0000";
layers = (
{
anchors = (
{
name = bottom;
pos = (252,0);
},
{
name = ogonek;
pos = (488,14);
},
{
name = top;
pos = (252,500);
}
);
guides = (
{
angle = 90;
pos = (-41,98);
},
{
angle = 270;
pos = (365,359);
}
);
layerId = m01;
shapes = (
{
closed = 1;
nodes = (
(440,336,l),
(440,405,o),
(413,455,o),
(362,485,cs),
(330,504,o),
(289,515,o),
(241,515,cs),
(138,515,o),
(67,465,o),
(41,398,c),
(46,390,l),
(126,390,l),
(151,438,o),
(193,465,o),
(241,465,cs),
(304,465,o),
(365,419,o),
(365,338,c),
(366,10,l),
(375,0,l),
(477,0,l),
(481,8,l),
(457,24,o),
(440,52,o),
(440,90,c)
);
},
{
closed = 1;
nodes = (
(358,113,o),
(329,93,o),
(289,71,cs),
(267,59,o),
(224,45,o),
(194,45,cs),
(144,46,o),
(102,81,o),
(102,139,cs),
(102,223,o),
(189,245,o),
(229,250,c),
(392,269,l),
(392,305,l),
(222,287,l),
(142,279,o),
(20,240,o),
(20,128,cs),
(20,52,o),
(75,-13,o),
(168,-14,cs),
(221,-15,o),
(266,5,o),
(302,28,cs),
(339,51,o),
(361,73,o),
(390,96,c),
(390,139,l)
);
}
);
width = 504;
}
);
metricRight = d;
unicode = 97;
},
{
glyphname = ae;
lastChange = "2023-05-15 19:54:00 +0000";
layers = (
{
layerId = m01;
shapes = (
{
closed = 1;
nodes = (
(457,18,o),
(541,-22,o),
(618,-22,cs),
(704,-22,o),
(771,29,o),
(812,74,c),
(786,99,l),
(756,61,o),
(704,24,o),
(636,24,cs),
(543,24,o),
(456,98,o),
(454,241,cs),
(452,349,o),
(503,477,o),
(611,476,cs),
(699,475,o),
(746,388,o),
(746,290,c),
(767,314,l),
(439,314,l),
(427,271,l),
(841,271,l),
(841,427,o),
(727,518,o),
(611,518,cs),
(530,518,o),
(467,474,o),
(426,413,c),
(413,443,o),
(392,468,o),
(362,485,cs),
(330,504,o),
(289,515,o),
(241,515,cs),
(138,515,o),
(67,465,o),
(41,398,c),
(46,390,l),
(126,390,l),
(151,438,o),
(193,465,o),
(241,465,cs),
(304,465,o),
(365,419,o),
(365,338,c),
(369,123,l),
(350,107,o),
(321,88,o),
(289,71,cs),
(268,60,o),
(224,45,o),
(194,45,cs),
(144,46,o),
(102,81,o),
(102,139,cs),
(102,223,o),
(189,245,o),
(229,250,c),
(392,269,l),
(392,305,l),
(222,287,l),
(142,279,o),
(20,240,o),
(20,128,cs),
(20,52,o),
(75,-13,o),
(168,-14,cs),
(221,-15,o),
(283,4,o),
(327,31,cs),
(364,54,o),
(385,69,o),
(410,94,c)
);
}
);
width = 874;
}
);
metricRight = o;
unicode = 230;
},
{
color = 4;
glyphname = b;
lastChange = "2023-04-24 20:06:09 +0000";
layers = (
{
guides = (
{
angle = 90;
pos = (23,802);
}
);
layerId = m01;
shapes = (
{
closed = 1;
nodes = (
(125,704,l),
(125,740,o),
(127,773,o),
(134,814,c),
(115,814,l),
(23,800,l),
(41,770,o),
(51,740,o),
(52,704,c),
(52,40,l),
(115,5,o),
(182,-15,o),
(241,-15,cs),
(397,-15,o),
(506,127,o),
(506,277,cs),
(506,425,o),
(399,519,o),
(271,519,cs),
(178,519,o),
(104,469,o),
(76,353,c),
(107,331,l),
(125,418,o),
(180,476,o),
(269,476,cs),
(370,476,o),
(424,399,o),
(424,274,cs),
(424,157,o),
(370,35,o),
(245,35,cs),
(199,35,o),
(160,52,o),
(126,90,c)
);
}
);
width = 539;
}
);
metricLeft = n;
metricRight = o;
unicode = 98;
},
{
color = 4;
glyphname = c;
lastChange = "2023-05-15 20:02:29 +0000";
layers = (
{
anchors = (
{
name = bottom;
pos = (243,0);
},
{
name = top;
pos = (265,500);
}
);
layerId = m01;
shapes = (
{
closed = 1;
nodes = (
(416,90,l),
(384,46,o),
(334,21,o),
(284,21,cs),
(196,21,o),
(117,98,o),
(115,234,cs),
(113,349,o),
(168,476,o),
(265,476,cs),
(327,476,o),
(374,423,o),
(395,381,c),
(453,435,l),
(416,477,o),
(354,519,o),
(274,519,cs),
(124,519,o),
(31,371,o),
(33,232,cs),
(35,73,o),
(154,-22,o),
(281,-22,cs),
(344,-22,o),
(408,1,o),
(450,48,c)
);
}
);
width = 486;
}
);
metricLeft = o;
metricRight = o;
unicode = 99;
},
{
color = 4;
glyphname = d;
lastChange = "2023-05-23 21:27:04 +0000";
layers = (
{
anchors = (
{
name = top;
pos = (294,500);
},
{
name = top3;
pos = (555,500);
}
);
guides = (
{
angle = 90;
pos = (29,225);
}
);
layerId = m01;
shapes = (
{
closed = 1;
nodes = (
(479,706,l),
(479,742,o),
(481,775,o),
(488,816,c),
(469,816,l),
(377,802,l),
(395,772,o),
(405,742,o),
(406,706,c),
(406,51,l),
(406,27,o),
(403,5,o),
(398,-13,c),
(417,-13,l),
(506,1,l),
(492,32,o),
(480,67,o),
(480,105,c)
);
},
{
closed = 1;
nodes = (
(417,497,o),
(355,519,o),
(294,519,cs),
(138,519,o),
(29,377,o),
(29,227,cs),
(29,79,o),
(136,-15,o),
(264,-15,cs),
(357,-15,o),
(431,35,o),
(459,151,c),
(428,173,l),
(410,86,o),
(355,28,o),
(266,28,cs),
(165,28,o),
(111,105,o),
(111,230,cs),
(111,347,o),
(165,469,o),
(290,469,cs),
(337,469,o),
(381,452,o),
(415,414,c),
(453,452,l)
);
}
);
width = 529;
}
);
unicode = 100;
},
{
color = 9;
glyphname = eth;
lastChange = "2023-05-20 15:06:18 +0000";
layers = (
{
guides = (
{
angle = 19.4673;
pos = (138,637);
}
);
layerId = m01;
shapes = (
{
closed = 1;
nodes = (
(518,422,o),
(406,519,o),
(281,519,cs),
(124,519,o),
(33,368,o),
(33,226,cs),
(33,66,o),
(145,-31,o),
(270,-31,cs),
(427,-31,o),
(518,120,o),
(518,262,cs)
);
},
{
closed = 1;
nodes = (
(436,92,o),
(369,12,o),
(281,12,cs),
(168,12,o),
(115,142,o),
(115,262,cs),
(115,396,o),
(182,476,o),
(270,476,cs),
(383,476,o),
(436,346,o),
(436,226,cs)
);
},
{
closed = 1;
nodes = (
(516,297,l),
(494,524,o),
(329,693,o),
(186,801,c),
(124,773,l),
(292,635,o),
(416,500,o),
(450,297,c)
);
},
{
closed = 1;
nodes = (
(161,587,l),
(445,687,l),
(427,739,l),
(143,639,l)
);
}
);
width = 600;
}
);
unicode = 240;
},
{
color = 9;
glyphname = dcroat;
lastChange = "2023-05-20 15:09:39 +0000";
layers = (
{
layerId = m01;
shapes = (
{
closed = 1;
nodes = (
(479,706,l),
(479,742,o),
(481,775,o),
(488,816,c),
(469,816,l),
(377,802,l),
(395,772,o),
(405,742,o),
(406,706,c),
(406,51,l),
(406,27,o),
(403,5,o),
(398,-13,c),
(417,-13,l),
(506,1,l),
(492,32,o),
(480,67,o),
(480,105,c)
);
},
{
closed = 1;
nodes = (
(417,497,o),
(355,519,o),
(294,519,cs),
(138,519,o),
(29,377,o),
(29,227,cs),
(29,79,o),
(136,-15,o),
(264,-15,cs),
(357,-15,o),
(431,35,o),
(459,151,c),
(428,173,l),
(410,86,o),
(355,28,o),
(266,28,cs),
(165,28,o),
(111,105,o),
(111,230,cs),
(111,347,o),
(165,469,o),
(290,469,cs),
(337,469,o),
(381,452,o),
(415,414,c),
(453,452,l)
);
},
{
closed = 1;
nodes = (
(266,617,l),
(560,617,l),
(560,667,l),
(266,667,l)
);
}
);
width = 600;
}
);
unicode = 273;
},
{
color = 4;
glyphname = e;
lastChange = "2023-05-20 15:10:14 +0000";
layers = (
{
anchors = (
{
name = bottom;
pos = (268,0);
},
{
name = ogonek;
pos = (461,10);
},
{
name = top;
pos = (274,500);
}
);
layerId = m01;
shapes = (
{
closed = 1;
nodes = (
(428,314,l),
(100,314,l),
(88,271,l),
(502,271,l),
(502,427,o),
(388,519,o),
(272,519,cs),
(124,519,o),
(35,371,o),
(33,238,cs),
(31,73,o),
(162,-22,o),
(279,-22,cs),
(365,-22,o),
(432,29,o),
(473,74,c),
(447,99,l),
(417,61,o),
(365,24,o),
(297,24,cs),
(204,24,o),
(117,98,o),
(115,241,cs),
(113,349,o),
(164,477,o),
(272,476,cs),
(360,475,o),
(407,388,o),
(407,290,c)
);
}
);
width = 535;
}
);
metricLeft = o;
metricRight = o;
unicode = 101;
},
{
color = 9;
glyphname = schwa;
lastChange = "2023-05-20 15:15:13 +0000";
layers = (
{
layerId = m01;
shapes = (
{
closed = 1;
nodes = (
(107,183,l),
(435,183,l),
(447,226,l),
(33,226,l),
(33,70,o),
(147,-22,o),
(263,-22,cs),
(411,-22,o),
(500,126,o),
(502,259,cs),
(504,424,o),
(373,519,o),
(256,519,cs),
(170,519,o),
(103,468,o),
(62,423,c),
(88,398,l),
(118,436,o),
(170,473,o),
(238,473,cs),
(331,473,o),
(418,399,o),
(420,256,cs),
(422,148,o),
(371,20,o),
(263,21,cs),
(175,22,o),
(128,109,o),
(128,207,c)
);
}
);
width = 600;
}
);
unicode = 601;
},
{
color = 4;
glyphname = f;
lastChange = "2023-04-24 20:07:14 +0000";
layers = (
{
layerId = m01;
shapes = (
{
closed = 1;
nodes = (
(292,463,l),
(292,513,l),
(23,513,l),
(23,463,l)
);
},
{
closed = 1;
nodes = (
(136,565,o),
(119,636,o),
(141,682,cs),
(155,710,o),
(181,726,o),
(212,726,cs),
(234,726,o),
(255,718,o),
(273,708,c),
(316,780,l),
(316,793,l),
(248,810,o),
(125,785,o),
(88,663,cs),
(73,613,o),
(75,554,o),
(84,493,c),
(84,89,l),
(83,51,o),
(67,24,o),
(43,8,c),
(47,0,l),
(195,0,l),
(199,8,l),
(175,24,o),
(159,51,o),
(158,89,c),
(158,493,l)
);
}
);
width = 316;
}
);
metricLeft = n;
unicode = 102;
},
{
color = 4;
glyphname = g;
lastChange = "2023-05-15 20:08:28 +0000";
layers = (
{
anchors = (
{
name = top;
pos = (235,500);
}
);
layerId = m01;
shapes = (
{
closed = 1;
nodes = (
(125,66,o),
(15,11,o),
(15,-90,cs),
(15,-190,o),
(121,-225,o),
(238,-217,cs),
(372,-208,o),
(463,-145,o),
(463,-50,cs),
(463,20,o),
(413,107,o),
(253,107,c),
(172,107,l),
(133,108,o),
(98,126,o),
(98,160,cs),
(98,186,o),
(119,209,o),
(145,218,c),
(126,244,l),
(87,232,o),
(46,200,o),
(46,135,cs),
(46,49,o),
(119,25,o),
(196,25,c),
(253,25,l),
(373,25,o),
(408,-13,o),
(408,-60,cs),
(408,-126,o),
(338,-171,o),
(248,-177,cs),
(139,-185,o),
(89,-127,o),
(89,-71,cs),
(89,0,o),
(170,31,o),
(213,44,c),
(205,74,l)
);
},
{
closed = 1;
nodes = (
(430,451,o),
(338,513,o),
(236,513,cs),
(106,513,o),
(31,417,o),
(31,327,cs),
(31,227,o),
(123,165,o),
(226,165,cs),
(355,165,o),
(430,261,o),
(430,350,cs)
);
},
{
closed = 1;
nodes = (
(357,251,o),
(306,205,o),
(235,205,cs),
(144,205,o),
(105,279,o),
(105,349,cs),
(105,428,o),
(154,474,o),
(226,474,cs),
(318,474,o),
(357,400,o),
(357,330,cs)
);
},
{
closed = 1;
nodes = (
(456,463,l),
(474,513,l),
(242,513,l),
(355,463,l)
);
}
);
width = 487;
}
);
unicode = 103;
},
{
color = 9;
glyphname = gstroke;
lastChange = "2023-05-21 16:02:09 +0000";
layers = (
{
layerId = m01;
shapes = (
{
closed = 1;
nodes = (
(206,66,o),
(96,11,o),
(96,-90,cs),
(96,-190,o),
(202,-225,o),
(319,-217,cs),
(453,-208,o),
(544,-145,o),
(544,-50,cs),
(544,20,o),
(494,107,o),
(334,107,c),
(253,107,l),
(214,108,o),
(179,126,o),
(179,160,cs),
(179,186,o),
(200,209,o),
(226,218,c),
(207,244,l),
(168,232,o),
(127,200,o),
(127,135,cs),
(127,49,o),
(200,25,o),
(277,25,c),
(334,25,l),
(454,25,o),
(489,-13,o),
(489,-60,cs),
(489,-126,o),
(419,-171,o),
(329,-177,cs),
(220,-185,o),
(170,-127,o),
(170,-71,cs),
(170,0,o),
(251,31,o),
(294,44,c),
(286,74,l)
);
},
{
closed = 1;
nodes = (
(511,451,o),
(419,513,o),
(317,513,cs),
(187,513,o),
(112,417,o),
(112,327,cs),
(112,227,o),
(204,165,o),
(307,165,cs),
(436,165,o),
(511,261,o),
(511,350,cs)
);
},
{
closed = 1;
nodes = (
(438,251,o),
(387,205,o),
(316,205,cs),
(225,205,o),
(186,279,o),
(186,349,cs),
(186,428,o),
(235,474,o),
(307,474,cs),
(399,474,o),
(438,400,o),
(438,330,cs)
);
},
{
closed = 1;
nodes = (
(537,463,l),
(555,513,l),
(323,513,l),
(436,463,l)
);
},
{
closed = 1;
nodes = (
(15,-110,l),
(625,-110,l),
(625,-60,l),
(15,-60,l)
);
}
);
width = 638;
}
);
unicode = 485;
},
{
color = 4;
glyphname = h;
lastChange = "2023-05-20 15:05:45 +0000";
layers = (
{
anchors = (
{
name = top2;
pos = (303,555);
}
);
guides = (
{
angle = 90;
pos = (35,802);
}
);
layerId = m01;
shapes = (
{
closed = 1;
nodes = (
(477,281,l),
(477,431,o),
(405,513,o),
(299,513,cs),
(181,513,o),
(116,409,o),
(87,356,c),
(118,322,l),
(136,365,o),
(179,450,o),
(271,450,cs),
(358,450,o),
(406,375,o),
(406,281,c),
(404,89,l),
(403,51,o),
(371,18,o),
(337,8,c),
(341,0,l),
(515,0,l),
(519,8,l),
(495,24,o),
(479,51,o),
(478,89,c)
);
},
{
closed = 1;
nodes = (
(137,704,l),
(137,740,o),
(139,773,o),
(146,814,c),
(127,814,l),
(35,800,l),
(53,770,o),
(63,740,o),
(64,704,c),
(64,90,l),
(63,52,o),
(47,25,o),
(23,9,c),
(27,1,l),
(201,1,l),
(205,9,l),
(171,19,o),
(139,52,o),
(138,90,c)
);
}
);
width = 534;
}
);
metricLeft = n;
unicode = 104;
},
{
color = 9;
glyphname = hbar;
lastChange = "2023-05-21 16:26:46 +0000";
layers = (
{
layerId = m01;
shapes = (
{
closed = 1;
nodes = (
(517,281,l),
(517,431,o),
(445,513,o),
(339,513,cs),
(221,513,o),
(156,409,o),
(127,356,c),
(158,322,l),
(176,365,o),
(219,450,o),
(311,450,cs),
(398,450,o),
(446,375,o),
(446,281,c),
(444,89,l),
(443,51,o),
(411,18,o),
(377,8,c),
(381,0,l),
(555,0,l),
(559,8,l),
(535,24,o),
(519,51,o),
(518,89,c)
);
},
{
closed = 1;
nodes = (
(177,704,l),
(177,740,o),
(179,773,o),
(186,814,c),
(167,814,l),
(75,800,l),
(93,770,o),
(103,740,o),
(104,704,c),
(104,90,l),
(103,52,o),
(87,25,o),
(63,9,c),
(67,1,l),
(241,1,l),
(245,9,l),
(211,19,o),
(179,52,o),
(178,90,c)
);
},
{
closed = 1;
nodes = (
(23,617,l),
(317,617,l),
(317,667,l),
(23,667,l)
);
}
);
width = 574;
}
);
metricLeft = n;
unicode = 295;
},
{
color = 4;
glyphname = idotless;
lastChange = "2023-05-15 11:20:45 +0000";
layers = (
{
anchors = (
{
name = bottom;
pos = (82,0);
},
{
name = ogonek;
pos = (169,10);
},
{
name = top;
pos = (83,500);
}
);
layerId = m01;
shapes = (
{
closed = 1;
nodes = (
(127,96,o),
(121,230,o),
(125,404,c),
(125,440,o),
(127,473,o),
(134,514,c),
(122,524,l),
(23,500,l),
(41,470,o),
(51,440,o),
(52,404,c),
(56,230,o),
(52,96,o),
(41,0,c),
(137,0,l)
);
}
);
width = 160;
}
);
metricLeft = n;
metricRight = d;
unicode = 305;
},
{
color = 4;
glyphname = jdotless;
lastChange = "2023-05-15 10:25:32 +0000";
layers = (
{
anchors = (
{
name = top;
pos = (121,500);
}
);
guides = (
{
angle = 90;
pos = (116,608);
}
);
layerId = m01;
shapes = (
{
closed = 1;
nodes = (
(90,-59,o),
(53,-129,o),
(10,-176,c),
(24,-190,l),
(61,-167,o),
(95,-142,o),
(122,-107,cs),
(150,-69,o),
(164,-27,o),
(164,33,c),
(163,404,l),
(163,440,o),
(165,473,o),
(172,514,c),
(160,524,l),
(61,500,l),
(79,470,o),
(89,440,o),
(90,404,c),
(90,0,l)
);
}
);
width = 195;
}
);
metricRight = d;
unicode = 567;
},
{
color = 4;
glyphname = k;
lastChange = "2023-05-21 13:29:37 +0000";
layers = (
{
anchors = (
{
name = bottom2;
pos = (248,0);
},
{
name = top2;
pos = (380,500);
}
);
guides = (
{
pos = (562,549);
},
{
pos = (227,70);
},
{
angle = 90;
pos = (33,802);
}
);
layerId = m01;
shapes = (
{
closed = 1;
nodes = (
(121,270,l),
(121,204,l),
(371,439,l),
(395,464,o),
(428,483,o),
(459,491,c),
(456,500,l),
(307,500,l),
(316,480,o),
(317,455,o),
(293,434,c)
);
},
{
closed = 1;
nodes = (
(237,330,l),
(191,286,l),
(332,83,l),
(351,57,o),
(345,23,o),
(325,9,c),
(329,1,l),
(485,1,l),
(489,9,l),
(463,24,o),
(438,44,o),
(421,70,c)
);
},
{
closed = 1;
nodes = (
(135,704,l),
(135,740,o),
(137,773,o),
(144,814,c),
(125,814,l),
(33,800,l),
(51,770,o),
(61,740,o),
(62,704,c),
(62,90,l),
(63,52,o),
(47,25,o),
(23,9,c),
(27,1,l),
(201,1,l),
(205,9,l),
(171,19,o),
(136,48,o),
(135,90,c)
);
}
);
width = 508;
}
);
metricLeft = n;
unicode = 107;
},
{
color = 4;
glyphname = l;
lastChange = "2023-05-23 21:25:18 +0000";
layers = (
{
anchors = (
{
name = bottom2;
pos = (101,0);
},
{
name = top2;
pos = (95,841);
},
{
name = top3;
pos = (213,500);
}
);
guides = (
{
pos = (196,8);
},
{
angle = 90;
pos = (35,802);
}
);
layerId = m01;
shapes = (
{
closed = 1;
nodes = (
(63,51,o),
(47,24,o),
(23,8,c),
(27,0,l),
(175,0,l),
(179,8,l),
(155,24,o),
(138,51,o),
(138,89,c),
(137,706,l),
(137,742,o),
(139,775,o),
(146,816,c),
(127,816,l),
(35,802,l),
(53,772,o),
(63,742,o),
(64,706,c),
(64,89,l)
);
}
);
width = 202;
}
);
metricLeft = n;
metricRight = d;
unicode = 108;
},
{
glyphname = lslash;
lastChange = "2023-05-15 20:34:36 +0000";
layers = (
{
layerId = m01;
shapes = (
{
closed = 1;
nodes = (
(63,51,o),
(47,24,o),
(23,8,c),
(27,0,l),
(175,0,l),
(179,8,l),
(155,24,o),
(138,51,o),
(138,89,c),
(137,706,l),
(137,742,o),
(139,775,o),
(146,816,c),
(127,816,l),
(35,802,l),
(53,772,o),
(63,742,o),
(64,706,c),
(64,89,l)
);
},
{
closed = 1;
nodes = (
(-1,222,l),
(93,273,l),
(93,328,l),
(-1,277,l)
);
},
{
closed = 1;
nodes = (
(113,290,l),
(229,353,l),
(229,408,l),
(113,345,l)
);
}
);
width = 252;
}
);
metricRight = d;
unicode = 322;
},
{
color = 4;
glyphname = m;
lastChange = "2023-04-16 14:30:31 +0000";
layers = (
{
layerId = m01;
shapes = (
{
closed = 1;
nodes = (
(538,8,l),
(504,18,o),
(471,51,o),
(471,89,c),
(470,281,l),
(470,431,o),
(398,513,o),
(292,513,cs),
(174,513,o),
(116,409,o),
(87,356,c),
(118,322,l),
(136,365,o),
(172,450,o),
(264,450,cs),
(351,450,o),
(399,375,o),
(399,281,c),
(397,89,l),
(397,51,o),
(364,18,o),
(330,8,c),
(334,0,l),
(534,0,l)
);
},
{
closed = 1;
nodes = (
(137,390,l),
(137,426,o),
(139,459,o),
(146,500,c),
(127,500,l),
(35,486,l),
(53,456,o),
(63,426,o),
(64,390,c),
(64,89,l),
(64,51,o),
(47,24,o),
(23,8,c),
(27,0,l),
(201,0,l),
(205,8,l),
(171,18,o),
(138,51,o),
(138,89,c)
);
},
{
closed = 1;
nodes = (
(784,441,o),
(696,513,o),
(603,513,cs),
(489,513,o),
(434,409,o),
(405,356,c),
(436,322,l),
(454,365,o),
(497,450,o),
(579,450,cs),
(649,450,o),
(714,385,o),
(713,281,c),
(712,89,l),
(712,51,o),
(679,18,o),
(645,8,c),
(649,0,l),
(823,0,l),
(827,8,l),
(803,24,o),
(786,51,o),
(786,89,c),
(784,281,l)
);
}
);
width = 832;
}
);
metricLeft = n;
unicode = 109;
},
{
color = 4;
glyphname = n;
lastChange = "2023-05-21 13:14:14 +0000";
layers = (
{
anchors = (
{
name = bottom2;
pos = (267,0);
},
{
name = top;
pos = (267,500);
}
);
layerId = m01;
shapes = (
{
closed = 1;
nodes = (
(477,281,l),
(477,431,o),
(405,513,o),
(299,513,cs),
(181,513,o),
(122,403,o),
(93,350,c),
(118,322,l),
(136,365,o),
(179,450,o),
(271,450,cs),
(358,450,o),
(406,375,o),
(406,281,c),
(404,89,l),
(403,51,o),
(371,18,o),
(337,8,c),
(341,0,l),
(515,0,l),
(519,8,l),
(495,24,o),
(479,51,o),
(478,89,c)
);
},
{
closed = 1;
nodes = (
(137,390,l),
(137,426,o),
(139,459,o),
(146,500,c),
(127,500,l),
(35,486,l),
(53,456,o),
(63,426,o),
(64,390,c),
(64,89,l),
(63,51,o),
(47,24,o),
(23,8,c),
(27,0,l),
(201,0,l),
(205,8,l),
(171,18,o),
(139,51,o),
(138,89,c)
);
}
);
width = 534;
}
);
unicode = 110;
},
{
color = 4;
glyphname = o;
lastChange = "2023-05-15 20:11:07 +0000";
layers = (
{
anchors = (
{
name = bottom;
pos = (276,0);
},
{
name = center;
pos = (276,250);
},
{
name = ogonek;
pos = (496,10);
},
{
name = top;
pos = (274,500);
},
{
name = topright;
pos = (531,500);
}
);
guides = (
{
angle = 90;
pos = (281,252);
}
);
layerId = m01;
shapes = (
{
closed = 1;
nodes = (
(518,422,o),
(406,519,o),
(281,519,cs),
(124,519,o),
(33,368,o),
(33,226,cs),
(33,66,o),
(145,-31,o),
(270,-31,cs),
(427,-31,o),
(518,120,o),
(518,262,cs)
);
},
{
closed = 1;
nodes = (
(436,92,o),
(369,12,o),
(281,12,cs),
(168,12,o),
(115,142,o),
(115,262,cs),
(115,396,o),
(182,476,o),
(270,476,cs),
(383,476,o),
(436,346,o),
(436,226,cs)
);
}
);
width = 551;
}
);
unicode = 111;
},
{
glyphname = oslash;
lastChange = "2023-05-15 20:43:54 +0000";
layers = (
{
guides = (
{
angle = 45.0478;
pos = (276,244);
}
);
layerId = m01;
shapes = (
{
closed = 1;
nodes = (
(518,422,o),
(406,519,o),
(281,519,cs),
(124,519,o),
(33,368,o),
(33,226,cs),
(33,66,o),
(145,-31,o),
(270,-31,cs),
(427,-31,o),
(518,120,o),
(518,262,cs)
);
},
{
closed = 1;
nodes = (
(436,92,o),
(369,12,o),
(281,12,cs),
(168,12,o),
(115,142,o),
(115,262,cs),
(115,396,o),
(182,476,o),
(270,476,cs),
(383,476,o),
(436,346,o),
(436,226,cs)
);
},
{
closed = 1;
nodes = (
(71,-7,l),
(532,458,l),
(490,500,l),
(29,35,l)
);
}
);
width = 600;
}
);
unicode = 248;
},
{
glyphname = oe;
lastChange = "2023-05-15 20:39:36 +0000";
layers = (
{
layerId = m01;
shapes = (
{
closed = 1;
nodes = (
(522,19,o),
(605,-22,o),
(682,-22,cs),
(768,-22,o),
(835,29,o),
(876,74,c),
(850,99,l),
(820,61,o),
(768,24,o),
(700,24,cs),
(607,24,o),
(520,98,o),
(518,241,cs),
(516,349,o),
(567,477,o),
(675,476,cs),
(763,475,o),
(810,388,o),
(810,290,c),
(831,314,l),
(503,314,l),
(491,271,l),
(905,271,l),
(905,427,o),
(791,519,o),
(675,519,cs),
(589,519,o),
(524,470,o),
(483,402,c),
(440,476,o),
(363,519,o),
(281,519,cs),
(124,519,o),
(33,368,o),
(33,226,cs),
(33,66,o),
(145,-31,o),
(270,-31,cs),
(363,-31,o),
(434,23,o),
(474,95,c)
);
},
{
closed = 1;
nodes = (
(436,92,o),
(369,12,o),
(281,12,cs),
(168,12,o),
(115,142,o),
(115,262,cs),
(115,396,o),
(182,476,o),
(270,476,cs),
(383,476,o),
(436,346,o),
(436,226,cs)
);
}
);
width = 938;
}
);
metricLeft = o;
metricRight = o;
unicode = 339;
},
{
color = 4;
glyphname = p;
lastChange = "2023-04-24 20:05:28 +0000";
layers = (
{
guides = (
{
pos = (269,-302);
},
{
angle = 90;
pos = (87,353);
}
);
layerId = m01;
shapes = (
{
closed = 1;
nodes = (
(135,14,o),
(193,-16,o),
(261,-16,cs),
(408,-16,o),
(517,126,o),
(517,269,cs),
(517,412,o),
(410,518,o),
(279,518,cs),
(189,518,o),
(115,468,o),
(87,352,c),
(118,330,l),
(136,417,o),
(191,475,o),
(276,475,cs),
(381,475,o),
(435,386,o),
(435,276,cs),
(435,156,o),
(378,34,o),
(256,34,cs),
(210,34,o),
(160,51,o),
(126,89,c),
(90,53,l)
);
},
{
closed = 1;
nodes = (
(137,404,l),
(137,440,o),
(139,473,o),
(146,514,c),
(127,514,l),
(35,500,l),
(53,470,o),
(63,440,o),
(64,404,c),
(64,-128,l),
(63,-166,o),
(47,-193,o),
(23,-209,c),
(27,-217,l),
(175,-217,l),
(179,-209,l),
(155,-193,o),
(139,-166,o),
(138,-128,c)
);
}
);
width = 550;
}
);
metricLeft = n;
metricRight = o;
unicode = 112;
},
{
color = 9;
glyphname = thorn;
lastChange = "2023-05-23 21:34:10 +0000";
layers = (
{
layerId = m01;
shapes = (
{
closed = 1;
nodes = (
(135,14,o),
(193,-16,o),
(261,-16,cs),
(408,-16,o),
(517,126,o),
(517,269,cs),
(517,412,o),
(410,518,o),
(279,518,cs),
(189,518,o),
(115,468,o),
(87,352,c),
(118,330,l),
(136,417,o),
(191,475,o),
(276,475,cs),
(381,475,o),
(435,386,o),
(435,276,cs),
(435,156,o),
(378,34,o),
(256,34,cs),
(210,34,o),
(160,51,o),
(126,89,c),
(90,53,l)
);
},
{
closed = 1;
nodes = (
(137,636,l),
(137,672,o),
(139,705,o),
(146,746,c),
(127,746,l),
(35,732,l),
(53,702,o),
(63,672,o),
(64,636,c),
(64,-128,l),
(63,-166,o),
(47,-193,o),
(23,-209,c),
(27,-217,l),
(175,-217,l),
(179,-209,l),
(155,-193,o),
(139,-166,o),
(138,-128,c)
);
}
);
width = 600;
}
);
unicode = 254;
},
{
color = 4;
glyphname = q;
lastChange = "2023-04-24 20:05:46 +0000";
layers = (
{
guides = (
{
pos = (318,-216);
},
{
angle = 90;
pos = (33,225);
},
{
angle = 90;
pos = (411,270);
}
);
layerId = m01;
shapes = (
{
closed = 1;
nodes = (
(484,395,l),
(485,437,o),
(496,462,o),
(511,485,c),
(480,488,o),
(453,492,o),
(419,501,cs),
(383,511,o),
(348,519,o),
(308,519,cs),
(142,519,o),
(33,377,o),
(33,227,cs),
(33,79,o),
(140,-15,o),
(268,-15,cs),
(361,-15,o),
(435,35,o),
(463,151,c),
(432,173,l),
(414,86,o),
(359,28,o),
(270,28,cs),
(169,28,o),
(115,105,o),
(115,230,cs),
(115,347,o),
(169,469,o),
(294,469,cs),
(338,469,o),
(379,454,o),
(408,437,c),
(408,-128,l),
(407,-166,o),
(391,-193,o),
(367,-209,c),
(371,-217,l),
(519,-217,l),
(523,-209,l),
(499,-193,o),
(483,-166,o),
(482,-128,c)
);
}
);
width = 546;
}
);
metricLeft = o;
metricRight = d;
unicode = 113;
},
{
color = 4;
glyphname = r;
lastChange = "2023-05-21 13:27:05 +0000";
layers = (
{
anchors = (
{
name = bottom2;
pos = (101,0);
},
{
name = top;
pos = (185,500);
}
);
layerId = m01;
shapes = (
{
closed = 1;
nodes = (
(319,511,o),
(273,518,o),
(228,496,cs),
(156,461,o),
(114,370,o),
(96,314,c),
(123,302,l),
(142,364,o),
(186,414,o),
(234,431,cs),
(266,443,o),
(297,439,o),
(322,427,c),
(360,483,l),
(354,493,l)
);
},
{
closed = 1;
nodes = (
(136,390,l),
(136,426,o),
(139,459,o),
(146,500,c),
(127,500,l),
(35,486,l),
(53,456,o),
(64,426,o),
(65,390,c),
(65,90,l),
(64,52,o),
(47,25,o),
(23,9,c),
(27,1,l),
(178,1,l),
(182,9,l),
(154,25,o),
(138,52,o),
(137,90,c)
);
}
);
width = 360;
}
);
metricLeft = n;
unicode = 114;
},
{
color = 4;
glyphname = s;
lastChange = "2023-05-21 13:18:30 +0000";
layers = (
{
anchors = (
{
name = bottom;
pos = (141,0);
},
{
name = bottom2;
pos = (223,0);
},
{
name = top;
pos = (202,500);
}
);
layerId = m01;
shapes = (
{
closed = 1;
nodes = (
(136,310,o),
(76,344,o),
(76,396,cs),
(76,444,o),
(127,474,o),
(186,474,cs),
(251,474,o),
(312,440,o),
(350,380,c),
(360,382,l),
(360,484,l),
(324,500,o),
(257,519,o),
(197,519,cs),
(106,519,o),
(23,469,o),
(23,374,cs),
(23,280,o),
(105,238,o),
(196,211,cs),
(308,179,o),
(338,152,o),
(338,111,cs),
(338,68,o),
(304,31,o),
(223,31,cs),
(143,31,o),
(80,68,o),
(36,114,c),
(24,111,l),
(24,9,l),
(85,-11,o),
(148,-22,o),
(196,-22,cs),
(306,-22,o),
(392,34,o),
(392,131,cs),
(392,208,o),
(336,253,o),
(228,284,cs)
);
}
);
width = 415;
}
);
metricLeft = n;
unicode = 115;
},
{
color = 4;
glyphname = t;
lastChange = "2023-05-23 21:30:17 +0000";
layers = (
{
anchors = (
{
name = bottom;
pos = (196,0);
},
{
name = bottom2;
pos = (241,0);
},
{
name = top3;
pos = (408,380);
}
);
layerId = m01;
shapes = (
{
closed = 1;
nodes = (
(115,535,o),
(82,500,o),
(23,480,c),
(28,463,l),
(95,463,l),
(95,163,l),
(95,52,o),
(142,-13,o),
(237,-13,cs),
(303,-13,o),
(344,16,o),
(386,79,c),
(357,100,l),
(333,66,o),
(306,37,o),
(259,37,cs),
(192,37,o),
(168,90,o),
(169,163,c),
(169,463,l),
(324,463,l),
(342,513,l),
(169,513,l),
(169,617,l),
(115,617,l)
);
}
);
width = 394;
}
);
metricLeft = n;
unicode = 116;
},
{
color = 9;
glyphname = tbar;
lastChange = "2023-05-21 16:48:28 +0000";
layers = (
{
layerId = m01;
shapes = (
{
closed = 1;
nodes = (
(115,535,o),
(82,500,o),
(23,480,c),
(28,463,l),
(95,463,l),
(95,163,l),
(95,52,o),
(142,-13,o),
(237,-13,cs),
(303,-13,o),
(344,16,o),
(386,79,c),
(357,100,l),
(333,66,o),
(306,37,o),
(259,37,cs),
(192,37,o),
(168,90,o),
(169,163,c),
(169,463,l),
(324,463,l),
(342,513,l),
(169,513,l),
(169,617,l),
(115,617,l)
);
},
{
closed = 1;
nodes = (
(23,264,l),
(317,264,l),
(317,314,l),
(23,314,l)
);
}
);
width = 394;
}
);
unicode = 359;
},
{
color = 4;
glyphname = u;
lastChange = "2023-05-15 14:28:14 +0000";
layers = (
{
anchors = (
{
name = bottom;
pos = (265,0);
},
{
name = ogonek;
pos = (534,29);
},
{
name = top;
pos = (265,500);
},
{
name = topright;
pos = (510,500);
}
);
guides = (
{
angle = 90;
pos = (65,220);
},
{
angle = 90;
pos = (464,220);
}
);
layerId = m01;
shapes = (
{
closed = 1;
nodes = (
(501,0,l),
(505,8,l),
(481,24,o),
(464,52,o),
(463,90,c),
(463,411,l),
(464,449,o),
(469,473,o),
(504,491,c),
(500,499,l),
(346,499,l),
(342,491,l),
(382,474,o),
(388,449,o),
(390,411,c),
(390,10,l),
(399,0,l)
);
},
{
closed = 1;
nodes = (
(140,449,o),
(152,482,o),
(186,492,c),
(182,500,l),
(28,500,l),
(24,492,l),
(48,476,o),
(65,449,o),
(65,411,c),
(65,219,l),
(65,69,o),
(122,-13,o),
(225,-13,cs),
(346,-13,o),
(411,100,o),
(440,153,c),
(418,175,l),
(400,132,o),
(348,50,o),
(258,50,cs),
(169,50,o),
(139,131,o),
(139,219,c),
(139,411,l)
);
}
);
width = 528;
}
);
metricRight = d;
unicode = 117;
},
{
color = 4;
glyphname = v;
lastChange = "2023-05-01 19:25:42 +0000";
layers = (
{
anchors = (
{
name = bottom;
pos = (258,0);
},
{
name = top;
pos = (258,500);
}
);
layerId = m01;
shapes = (
{
closed = 1;
nodes = (
(255,-14,l),
(276,-14,l),
(451,423,l),
(464,458,o),
(487,481,o),
(500,493,c),
(496,500,l),
(385,500,l),
(403,475,o),
(411,455,o),
(397,415,c),
(274,96,l),
(289,96,l),
(153,423,l),
(143,449,o),
(148,478,o),
(172,492,c),
(168,500,l),
(4,500,l),
(0,492,l),
(31,482,o),
(48,469,o),
(62,442,c)
);
}
);
width = 515;
}
);
unicode = 118;
},
{
color = 4;
glyphname = w;
lastChange = "2023-05-01 19:25:44 +0000";
layers = (
{
anchors = (
{
name = bottom;
pos = (401,0);
},
{
name = top;
pos = (401,500);
}
);
layerId = m01;
shapes = (
{
closed = 1;
nodes = (
(563,96,l),
(577,96,l),
(448,416,l),
(437,446,o),
(450,479,o),
(477,490,c),
(477,500,l),
(317,500,l),
(314,490,l),
(334,478,o),
(348,462,o),
(357,442,c),
(550,-14,l),
(562,-14,l),
(737,423,l),
(751,458,o),
(773,481,o),
(786,493,c),
(782,500,l),
(674,500,l),
(692,475,o),
(700,458,o),
(689,423,c)
);
},
{
closed = 1;
nodes = (
(143,449,o),
(148,478,o),
(172,492,c),
(168,500,l),
(4,500,l),
(0,492,l),
(31,482,o),
(48,469,o),
(62,442,c),
(255,-14,l),
(267,-14,l),
(419,365,l),
(393,407,l),
(268,96,l),
(282,96,l),
(153,423,l)
);
}
);
width = 801;
}
);
unicode = 119;
},
{
color = 4;
glyphname = x;
lastChange = "2023-04-24 20:11:25 +0000";
layers = (
{
guides = (
{
angle = 90;
pos = (11,255);
}
);
layerId = m01;
shapes = (
{
closed = 1;
nodes = (
(351,70,ls),
(368,47,o),
(370,22,o),
(365,0,c),
(520,0,l),
(524,13,l),
(498,23,o),
(471,40,o),
(449,70,c),
(178,430,l),
(161,453,o),
(160,478,o),
(167,500,c),
(14,500,l),
(10,487,l),
(39,475,o),
(65,455,o),
(85,430,c)
);
},
{
closed = 1;
nodes = (
(257,270,l),
(285,241,l),
(455,442,l),
(473,460,o),
(493,479,o),
(520,491,c),
(517,500,l),
(391,500,l),
(387,491,l),
(400,475,o),
(405,455,o),
(391,435,c)
);
},
{
closed = 1;
nodes = (
(58,39,o),
(38,20,o),
(11,8,c),
(14,-1,l),
(140,-1,l),
(144,8,l),
(131,24,o),
(126,44,o),
(140,64,c),
(275,229,l),
(246,259,l),
(76,57,l)
);
}
);
width = 534;
}
);
unicode = 120;
},
{
color = 4;
glyphname = y;
lastChange = "2023-05-15 11:26:09 +0000";
layers = (
{
anchors = (
{
name = bottom;
pos = (252,0);
},
{
name = top;
pos = (273,500);
}
);
layerId = m01;
shapes = (
{
closed = 1;
nodes = (
(278,106,l),
(293,106,l),
(159,423,l),
(149,449,o),
(159,478,o),
(183,492,c),
(179,500,l),
(14,500,l),
(10,492,l),
(41,482,o),
(55,467,o),
(68,442,c),
(246,19,l),
(205,-88,ls),
(187,-136,o),
(137,-155,o),
(87,-140,c),
(63,-207,l),
(66,-216,l),
(146,-223,o),
(203,-203,o),
(221,-159,cs),
(454,423,l),
(468,458,o),
(490,481,o),
(503,493,c),
(499,500,l),
(389,500,l),
(407,475,o),
(415,455,o),
(401,415,c)
);
}
);
width = 503;
}
);
unicode = 121;
},
{
color = 4;
glyphname = z;
lastChange = "2023-05-15 11:53:13 +0000";
layers = (
{
anchors = (
{
name = top;
pos = (236,500);
}
);
layerId = m01;
shapes = (
{
closed = 1;
nodes = (
(87,11,l),
(452,463,l),
(452,501,l),
(34,501,l),
(34,374,l),
(47,370,l),
(57,402,o),
(75,426,o),
(96,441,cs),
(123,460,o),
(157,465,o),
(189,465,cs),
(402,465,l),
(384,489,l),
(20,43,l),
(20,0,l),
(462,0,l),
(462,132,l),
(449,136,l),
(440,112,o),
(427,87,o),
(405,69,cs),
(380,49,o),
(349,41,o),
(307,41,cs),
(75,41,l)
);
}
);
width = 482;
}
);
unicode = 122;
},
{
glyphname = period;
lastChange = "2023-05-01 14:29:03 +0000";
layers = (
{
layerId = m01;
shapes = (
{
closed = 1;
nodes = (
(94,0,o),
(118,24,o),
(118,54,cs),
(118,84,o),
(94,108,o),
(64,108,cs),
(34,108,o),
(10,84,o),
(10,54,cs),
(10,24,o),
(34,0,o),
(64,0,cs)
);
}
);
width = 128;
}
);
unicode = 46;
},
{
glyphname = comma;
lastChange = "2023-05-01 18:58:10 +0000";
layers = (
{
layerId = m01;
shapes = (
{
closed = 1;
nodes = (
(120,72,o),
(100,97,o),
(70,97,cs),
(39,97,o),
(19,75,o),
(19,45,cs),
(19,20,o),
(46,5,o),
(46,-25,cs),
(46,-49,o),
(22,-66,o),
(7,-76,c),
(19,-93,l),
(71,-70,o),
(120,-23,o),
(120,42,cs)
);
}
);
width = 128;
}
);
unicode = 44;
},
{
glyphname = hyphen;
lastChange = "2023-05-01 17:23:19 +0000";
layers = (
{
guides = (
{
locked = 1;
pos = (138,249);
},
{
angle = 90;
locked = 1;
pos = (276,327);
}
);
layerId = m01;
shapes = (
{
closed = 1;
nodes = (
(12,259,l),
(266,259,l),
(266,314,l),
(12,314,l)
);
}
);
width = 278;
}
);
unicode = 45;
},
{
color = 9;
glyphname = dieresiscomb;
lastChange = "2023-05-15 10:50:43 +0000";
layers = (
{
anchors = (
{
name = _top;
pos = (274,500);
},
{
name = _top2;
pos = (274,555);
}
);
layerId = m01;
shapes = (
{
closed = 1;
nodes = (
(213,611,o),
(237,634,o),
(237,662,cs),
(237,690,o),
(213,713,o),
(183,713,cs),
(153,713,o),
(129,690,o),
(129,662,cs),
(129,634,o),
(153,611,o),
(183,611,cs)
);
},
{
closed = 1;
nodes = (
(399,611,o),
(424,634,o),
(424,662,cs),
(424,690,o),
(399,713,o),
(370,713,cs),
(341,713,o),
(316,690,o),
(316,662,cs),
(316,634,o),
(341,611,o),
(370,611,cs)
);
}
);
width = 553;
}
);
unicode = 776;
},
{
color = 9;
glyphname = dotaccentcomb;
lastChange = "2023-05-15 13:44:45 +0000";
layers = (
{
anchors = (
{
name = _top;
pos = (102,500);
},
{
name = _top2;
pos = (102,555);
}
);
layerId = m01;
shapes = (
{
closed = 1;
nodes = (
(132,608,o),
(156,632,o),
(156,662,cs),
(156,692,o),
(132,716,o),
(102,716,cs),
(72,716,o),
(48,692,o),
(48,662,cs),
(48,632,o),
(72,608,o),
(102,608,cs)
);
}
);
width = 202;
}
);
unicode = 775;
},
{
color = 9;
glyphname = gravecomb;
lastChange = "2023-05-15 13:44:56 +0000";
layers = (
{
anchors = (
{
name = _top;
pos = (274,500);
},
{
name = _top2;
pos = (274,555);
}
);
layerId = m01;
shapes = (
{
closed = 1;
nodes = (
(140,730,l),
(351,597,l),
(378,627,l),
(213,776,l),
(143,741,l)
);
}
);
width = 600;
}
);
unicode = 768;
},
{
color = 9;
glyphname = acutecomb;
lastChange = "2023-05-15 13:42:45 +0000";
layers = (
{
anchors = (
{
name = _top;
pos = (234,500);
},
{
name = _top2;
pos = (234,555);
}
);
layerId = m01;
shapes = (
{
closed = 1;
nodes = (
(305,776,l),
(140,627,l),
(167,597,l),
(378,730,l),
(375,741,l)
);
}
);
width = 518;
}
);
unicode = 769;
},
{
color = 9;
glyphname = hungarumlautcomb;
lastChange = "2023-05-15 14:32:13 +0000";
layers = (
{
anchors = (
{
name = _top;
pos = (228,500);
},
{
name = _top2;
pos = (228,555);
}
);
layerId = m01;
shapes = (
{
closed = 1;
nodes = (
(301,755,l),
(120,597,l),
(93,627,l),
(228,801,l),
(298,766,l)
);
},
{
closed = 1;
nodes = (
(478,756,l),
(297,598,l),
(270,628,l),
(405,802,l),
(475,767,l)
);
}
);
width = 600;
}
);
unicode = 779;
},
{
color = 9;
glyphname = caroncomb.alt;
lastChange = "2023-05-23 21:24:35 +0000";
layers = (
{
anchors = (
{
name = _top3;
pos = (288,500);
}
);
layerId = m01;
shapes = (
{
closed = 1;
nodes = (
(354,793,o),
(336,815,o),
(309,815,cs),
(283,815,o),
(265,797,o),
(265,770,cs),
(265,748,o),
(288,734,o),
(288,708,cs),
(288,687,o),
(267,671,o),
(254,662,c),
(265,648,l),
(311,668,o),
(354,710,o),
(354,767,cs)
);
}
);
width = 600;
}
);
},
{
color = 9;
glyphname = circumflexcomb;
lastChange = "2023-05-15 13:47:15 +0000";
layers = (
{
anchors = (
{
name = _top;
pos = (274,500);
},
{
name = _top2;
pos = (273,555);
}
);
layerId = m01;
shapes = (
{
closed = 1;
nodes = (
(136,597,l),
(198,597,l),
(283,729,l),
(262,729,l),
(347,597,l),
(408,597,l),
(415,607,l),
(280,776,l),
(265,776,l),
(129,607,l)
);
}
);
width = 544;
}
);
unicode = 770;
},
{
color = 9;
glyphname = caroncomb;
lastChange = "2023-05-20 15:00:18 +0000";
layers = (
{
anchors = (
{
name = _top;
pos = (293,500);
},
{
name = _top2;
pos = (293,555);
}
);
layerId = m01;
shapes = (
{
closed = 1;
nodes = (
(285,597,l),
(300,597,l),
(435,766,l),
(428,776,l),
(367,776,l),
(282,644,l),
(303,644,l),
(218,776,l),
(156,776,l),
(149,766,l)
);
}
);
width = 584;
}
);
unicode = 780;
},
{
color = 9;
glyphname = brevecomb;
lastChange = "2023-05-15 13:49:26 +0000";
layers = (
{
anchors = (
{
name = _top;
pos = (292,500);
},
{
name = _top2;
pos = (292,555);
}
);
guides = (
{
angle = 90;
pos = (292,603);
}
);
layerId = m01;
shapes = (
{
closed = 1;
nodes = (
(251,667,o),
(221,707,o),
(204,770,c),
(181,766,l),
(186,691,o),
(212,612,o),
(292,612,cs),
(372,612,o),
(398,691,o),
(403,766,c),
(380,770,l),
(363,707,o),
(333,667,o),
(292,667,cs)
);
}
);
width = 584;
}
);
unicode = 774;
},
{
color = 9;
glyphname = ringcomb;
lastChange = "2023-05-15 13:50:01 +0000";
layers = (
{
anchors = (
{
name = _top;
pos = (233,500);
},
{
name = _top2;
pos = (233,555);
}
);
guides = (
{
angle = 90;
pos = (233,561);
}
);
layerId = m01;
shapes = (
{
closed = 1;
nodes = (
(318,757,o),
(279,788,o),
(233,788,cs),
(178,788,o),
(145,740,o),
(145,694,cs),
(145,643,o),
(186,612,o),
(231,612,cs),
(285,612,o),
(318,661,o),
(318,705,cs)
);
},
{
closed = 1;
nodes = (
(280,655,o),
(260,632,o),
(233,632,cs),
(200,632,o),
(183,670,o),
(183,705,cs),
(183,745,o),
(203,768,o),
(231,768,cs),
(263,768,o),
(280,730,o),
(280,694,cs)
);
}
);
width = 463;
}
);
unicode = 778;
},
{
color = 9;
glyphname = tildecomb;
lastChange = "2023-05-15 14:29:23 +0000";
layers = (
{
anchors = (
{
name = _top;
pos = (265,500);
},
{
name = _top2;
pos = (265,555);
}
);
layerId = m01;
shapes = (
{
closed = 1;
nodes = (
(158,644,o),
(195,640,o),
(223,630,c),
(277,611,l),
(332,591,o),
(402,601,o),
(432,681,c),
(399,697,l),
(379,656,o),
(339,657,o),
(310,668,c),
(255,687,l),
(201,706,o),
(123,689,o),
(102,609,c),
(138,593,l)
);
}
);
width = 534;
}
);
unicode = 771;
},
{
color = 9;
glyphname = macroncomb;
lastChange = "2023-05-15 19:55:17 +0000";
layers = (
{
anchors = (
{
name = _top;
pos = (265,500);
},
{
name = _top2;
pos = (265,555);
}
);
layerId = m01;
shapes = (
{
closed = 1;
nodes = (
(120,614,l),
(414,614,l),
(414,669,l),
(120,669,l)
);
}
);
width = 600;
}
);
unicode = 772;
},
{
color = 6;
glyphname = commaturnedabovecomb;
lastChange = "2023-05-21 16:50:54 +0000";
layers = (
{
anchors = (
{
name = _top;
pos = (249,500);
}
);
layerId = m01;
shapes = (
{
closed = 1;
nodes = (
(202,579,o),
(220,554,o),
(250,554,cs),
(281,554,o),
(299,576,o),
(299,606,cs),
(299,636,o),
(274,643,o),
(274,668,cs),
(274,692,o),
(298,703,o),
(313,713,c),
(301,730,l),
(249,707,o),
(202,674,o),
(202,609,cs)
);
}
);
width = 600;
}
);
unicode = 786;
},
{
color = 9;
glyphname = commaaccentcomb;
lastChange = "2023-05-21 12:47:48 +0000";
layers = (
{
anchors = (
{
name = _bottom2;
pos = (73,12);
}
);
layerId = m01;
shapes = (
{
closed = 1;
nodes = (
(120,-61,o),
(102,-36,o),
(72,-36,cs),
(41,-36,o),
(23,-58,o),
(23,-88,cs),
(23,-118,o),
(48,-125,o),
(48,-150,cs),
(48,-174,o),
(24,-185,o),
(9,-195,c),
(21,-212,l),
(73,-189,o),
(120,-156,o),
(120,-91,cs)
);
}
);
width = 135;
}
);
unicode = 806;
},
{
color = 9;
glyphname = cedillacomb;
lastChange = "2023-05-15 13:38:33 +0000";
layers = (
{
anchors = (
{
name = _bottom;
pos = (187,-7);
}
);
layerId = m01;
shapes = (
{
closed = 1;
nodes = (
(141,-223,o),
(167,-235,o),
(201,-235,cs),
(271,-235,o),
(293,-185,o),
(293,-154,cs),
(293,-115,o),
(257,-97,o),
(219,-97,c),
(268,2,l),
(207,2,l),
(156,-126,l),
(161,-131,l),
(203,-115,o),
(250,-129,o),
(250,-160,cs),
(250,-185,o),
(233,-203,o),
(201,-203,cs),
(177,-203,o),
(154,-191,o),
(139,-175,c),
(129,-210,l)
);
}
);
width = 422;
}
);
unicode = 807;
},
{
color = 9;
glyphname = ogonekcomb;
lastChange = "2023-05-15 20:06:04 +0000";
layers = (
{
anchors = (
{
name = _ogonek;
pos = (436,2);
}
);
layerId = m01;
shapes = (
{
closed = 1;
nodes = (
(259,-15,o),
(218,-62,o),
(218,-118,cs),
(218,-155,o),
(237,-216,o),
(330,-216,cs),
(375,-216,o),
(420,-181,o),
(436,-164,c),
(415,-134,l),
(395,-157,o),
(367,-172,o),
(331,-172,cs),
(300,-172,o),
(271,-146,o),
(271,-108,cs),
(271,-75,o),
(289,-43,o),
(343,-13,c),
(368,2,l),
(324,2,l)
);
}
);
width = 600;
}
);
unicode = 808;
},
{
color = 9;
glyphname = acutecomb.loclPLK;
lastChange = "2023-05-15 13:38:49 +0000";
layers = (
{
anchors = (
{
name = _top;
pos = (160,500);
},
{
name = _top3;
pos = (160,540);
}
);
layerId = m01;
shapes = (
{
closed = 1;
nodes = (
(187,761,l),
(140,590,l),
(187,590,l),
(268,750,l),
(265,761,l)
);
}
);
width = 408;
}
);
},
{
color = 9;
glyphname = dieresis;
lastChange = "2023-05-15 10:37:28 +0000";
layers = (
{
anchors = (
{
name = _top;
pos = (274,500);
},
{
name = _top2;
pos = (274,555);
}
);
layerId = m01;
shapes = (
{
closed = 1;
nodes = (
(213,611,o),
(237,634,o),
(237,662,cs),
(237,690,o),
(213,713,o),
(183,713,cs),
(153,713,o),
(129,690,o),
(129,662,cs),
(129,634,o),
(153,611,o),
(183,611,cs)
);
},
{
closed = 1;
nodes = (
(399,611,o),
(424,634,o),
(424,662,cs),
(424,690,o),
(399,713,o),
(370,713,cs),
(341,713,o),
(316,690,o),
(316,662,cs),
(316,634,o),
(341,611,o),
(370,611,cs)
);
}
);
width = 553;
}
);
unicode = 168;
},
{
color = 9;
glyphname = dotaccent;
lastChange = "2023-05-15 10:42:32 +0000";
layers = (
{
anchors = (
{
name = _top;
pos = (102,500);
}
);
layerId = m01;
shapes = (
{
closed = 1;
nodes = (
(132,608,o),
(156,632,o),
(156,662,cs),
(156,692,o),
(132,716,o),
(102,716,cs),
(72,716,o),
(48,692,o),
(48,662,cs),
(48,632,o),
(72,608,o),
(102,608,cs)
);
}
);
width = 202;
}
);
unicode = 729;
},
{
color = 9;
glyphname = grave;
lastChange = "2023-05-15 13:39:00 +0000";
layers = (
{
anchors = (
{
name = _top;
pos = (274,500);
}
);
layerId = m01;
shapes = (
{
closed = 1;
nodes = (
(140,730,l),
(351,597,l),
(378,627,l),
(213,776,l),
(143,741,l)
);
}
);
width = 600;
}
);
unicode = 96;
},
{
color = 9;
glyphname = acute;
lastChange = "2023-05-15 13:39:10 +0000";
layers = (
{
anchors = (
{
name = _top;
pos = (274,500);
}
);
layerId = m01;
shapes = (
{
closed = 1;
nodes = (
(305,776,l),
(140,627,l),
(167,597,l),
(378,730,l),
(375,741,l)
);
}
);
width = 518;
}
);
unicode = 180;
},
{
color = 9;
glyphname = hungarumlaut;
lastChange = "2023-05-15 13:39:31 +0000";
layers = (
{
anchors = (
{
name = _top;
pos = (274,500);
}
);
guides = (
{
pos = (116,597);
}
);
layerId = m01;
shapes = (
{
closed = 1;
nodes = (
(228,801,l),
(93,627,l),
(120,597,l),
(301,755,l),
(298,766,l)
);
},
{
closed = 1;
nodes = (
(405,802,l),
(270,628,l),
(297,598,l),
(478,756,l),
(475,767,l)
);
}
);
width = 600;
}
);
unicode = 733;
},
{
color = 9;
glyphname = circumflex;
lastChange = "2023-05-15 13:39:37 +0000";
layers = (
{
anchors = (
{
name = _top;
pos = (274,500);
}
);
guides = (
{
locked = 1;
pos = (272,776);
},
{
locked = 1;
pos = (277,597);
},
{
locked = 1;
pos = (195,608);
}
);
layerId = m01;
shapes = (
{
closed = 1;
nodes = (
(136,597,l),
(198,597,l),
(283,729,l),
(262,729,l),
(347,597,l),
(408,597,l),
(415,607,l),
(280,776,l),
(265,776,l),
(129,607,l)
);
}
);
width = 544;
}
);
unicode = 710;
},
{
color = 9;
glyphname = caron;
lastChange = "2023-05-15 13:48:32 +0000";
layers = (
{
anchors = (
{
name = _top;
pos = (293,500);
},
{
name = _top2;
pos = (293,555);
}
);
guides = (
{
angle = 90;
pos = (293,581);
}
);
layerId = m01;
shapes = (
{
closed = 1;
nodes = (
(285,597,l),
(300,597,l),
(435,766,l),
(428,776,l),
(367,776,l),
(282,644,l),
(303,644,l),
(218,776,l),
(156,776,l),
(149,766,l)
);
}
);
width = 584;
}
);
unicode = 711;
},
{
color = 9;
glyphname = breve;
lastChange = "2023-05-15 13:39:58 +0000";
layers = (
{
anchors = (
{
name = _top;
pos = (292,500);
}
);
guides = (
{
angle = 90;
pos = (292,636);
},
{
locked = 1;
pos = (292,675);
}
);
layerId = m01;
shapes = (
{
closed = 1;
nodes = (
(251,667,o),
(221,707,o),
(204,770,c),
(181,766,l),
(186,691,o),
(212,612,o),
(292,612,cs),
(372,612,o),
(398,691,o),
(403,766,c),
(380,770,l),
(363,707,o),
(333,667,o),
(292,667,cs)
);
}
);
width = 584;
}
);
unicode = 728;
},
{
color = 9;
glyphname = ring;
lastChange = "2023-05-15 10:51:54 +0000";
layers = (
{
anchors = (
{
name = _top;
pos = (231,500);
}
);
guides = (
{
pos = (263,792);
},
{
pos = (263,600);
}
);
layerId = m01;
shapes = (
{
closed = 1;
nodes = (
(318,757,o),
(279,788,o),
(233,788,cs),
(178,788,o),
(145,740,o),
(145,694,cs),
(145,643,o),
(186,612,o),
(231,612,cs),
(285,612,o),
(318,661,o),
(318,705,cs)
);
},
{
closed = 1;
nodes = (
(280,655,o),
(260,632,o),
(233,632,cs),
(200,632,o),
(183,670,o),
(183,705,cs),
(183,745,o),
(203,768,o),
(231,768,cs),
(263,768,o),
(280,730,o),
(280,694,cs)
);
}
);
width = 463;
}
);
unicode = 730;
},
{
color = 9;
glyphname = tilde;
lastChange = "2023-05-15 10:51:02 +0000";
layers = (
{
anchors = (
{
name = _top;
pos = (265,500);
}
);
guides = (
{
locked = 1;
pos = (289,628);
},
{
locked = 1;
pos = (296,767);
},
{
angle = 90;
locked = 1;
pos = (120,739);
},
{
angle = 90;
locked = 1;
pos = (414,749);
}
);
layerId = m01;
shapes = (
{
closed = 1;
nodes = (
(158,644,o),
(195,640,o),
(223,630,c),
(277,611,l),
(332,591,o),
(402,601,o),
(432,681,c),
(399,697,l),
(379,656,o),
(339,657,o),
(310,668,c),
(255,687,l),
(201,706,o),
(123,689,o),
(102,609,c),
(138,593,l)
);
}
);
width = 534;
}
);
unicode = 732;
},
{
color = 9;
glyphname = macron;
lastChange = "2023-05-15 19:56:06 +0000";
layers = (
{
anchors = (
{
name = _top;
pos = (265,500);
}
);
guides = (
{
pos = (446,717);
},
{
pos = (446,662);
}
);
layerId = m01;
shapes = (
{
closed = 1;
nodes = (
(120,614,l),
(414,614,l),
(414,669,l),
(120,669,l)
);
}
);
width = 534;
}
);
unicode = 175;
},
{
color = 9;
glyphname = cedilla;
lastChange = "2023-05-15 13:40:20 +0000";
layers = (
{
anchors = (
{
name = _bottom;
pos = (187,-7);
}
);
layerId = m01;
shapes = (
{
closed = 1;
nodes = (
(141,-223,o),
(167,-235,o),
(201,-235,cs),
(271,-235,o),
(293,-185,o),
(293,-154,cs),
(293,-115,o),
(257,-97,o),
(219,-97,c),
(268,2,l),
(207,2,l),
(156,-126,l),
(161,-131,l),
(203,-115,o),
(250,-129,o),
(250,-160,cs),
(250,-185,o),
(233,-203,o),
(201,-203,cs),
(177,-203,o),
(154,-191,o),
(139,-175,c),
(129,-210,l)
);
}
);
width = 422;
}
);
unicode = 184;
},
{
color = 9;
glyphname = ogonek;
lastChange = "2023-05-15 13:40:28 +0000";
layers = (
{
anchors = (
{
name = _ogonek;
pos = (436,2);
}
);
layerId = m01;
shapes = (
{
closed = 1;
nodes = (
(259,-15,o),
(218,-62,o),
(218,-118,cs),
(218,-155,o),
(237,-216,o),
(330,-216,cs),
(375,-216,o),
(420,-181,o),
(436,-164,c),
(415,-134,l),
(395,-157,o),
(367,-172,o),
(331,-172,cs),
(300,-172,o),
(271,-146,o),
(271,-108,cs),
(271,-72,o),
(300,-29,o),
(367,2,c),
(324,2,l)
);
}
);
width = 600;
}
);
unicode = 731;
},
